<svg xmlns="http://www.w3.org/2000/svg" viewBox="0 0 170.13 173.12"><defs><style>.cls-1,.cls-2{fill:#123274;}.cls-1{fill-rule:evenodd;}.cls-3{fill:#fff;}.cls-4{fill:#06b6d4;}</style></defs><g id="Livello_2" data-name="Livello 2"><g id="Livello_1-2" data-name="Livello 1"><path class="cls-1" d="M140.48,169.44c-.39-.44-.8-.81-1.22-1.23-4.25-4.25-9.83-9.81-15.18-15.14l-13-13-.7-.7c-2.12-2.12-4.76-4.76-4.76-9.83,0-2.28,0-4.93.06-7.48,0-2.36,0-4.62,0-6.45a10.15,10.15,0,0,1,.7-3.84c-1.9.89-2.89,2.77-2.89,5.44,0,3.8-.1,9.54-.1,13.92,0,4,2,6.06,4,8.07,7.07,7.07,21.78,21.7,30.08,30,3.36,3.36,5.47,4.26,7.34,3.73A20.92,20.92,0,0,1,140.48,169.44Z"/><path class="cls-1" d="M166.41,143.76l-30.18-30.22c-2-2-4-4-8.06-4H126a25.51,25.51,0,0,1,.82,3,16.27,16.27,0,0,1-.67,9.27,4.29,4.29,0,0,1,.08.72,5,5,0,1,1-6.12-4.89,11,11,0,0,0-.17-4,18,18,0,0,0-1.43-4.09l-4.4,0c-3.82,0-5.84,2.19-5.84,6s-.11,9.55-.11,13.93c0,4,2,6,4,8.06,7.07,7.07,21.79,21.7,30.09,30,6,6.06,8,4.13,11.92.24l12.16-12.18C170.33,151.7,172.34,149.69,166.41,143.76Z"/><path class="cls-1" d="M117.25,99.49c-5-5-11-7.69-16.24-7.87l-1.2,3,.67,0a14.38,14.38,0,0,1,3,.33,26,26,0,0,1,18.41,18.4c.8,3.8.12,7-1.92,9a7.08,7.08,0,0,1-1.86,1.33,5.06,5.06,0,0,0,2,2.3,10.09,10.09,0,0,0,2-1.51C127.63,118.9,125.47,107.7,117.25,99.49Z"/><path class="cls-2" d="M104.52,121.65a27.54,27.54,0,0,1-5.28-4.14,24,24,0,0,1-6.74-11.67,11.67,11.67,0,0,1,.26-6.44l-1.91-2.86a13.38,13.38,0,0,0-1.28,9.92,27.13,27.13,0,0,0,7.54,13.17,29.34,29.34,0,0,0,7.41,5.43Z"/><path class="cls-3" d="M135,137a4,4,0,0,1-2.46-1.35l-1.59-1.58-2.73,2.73-1.57-1.57,7.59-7.6,3.27,3.26a3.75,3.75,0,0,1,1.21,2.39,3.26,3.26,0,0,1-1.15,2.48A3.32,3.32,0,0,1,135,137Zm1.52-3.95a1.83,1.83,0,0,0-.59-1.1l-1.43-1.43-2.24,2.24,1.43,1.43a1.71,1.71,0,0,0,1.12.57,1.59,1.59,0,0,0,1.17-.56A1.45,1.45,0,0,0,136.5,133.08Z"/><path class="cls-3" d="M145.9,139.73a2.63,2.63,0,0,1,.18,1.24,3.32,3.32,0,0,1-.25,1,3,3,0,0,1-.66.94,3.17,3.17,0,0,1-1.34.79,2.12,2.12,0,0,1-1.64-.16,2,2,0,0,1,.14,1.35,3.54,3.54,0,0,1-1,1.4l-.51.51a5.67,5.67,0,0,0-.66.75.89.89,0,0,0-.14.73l-.19.19-1.76-1.76.31-.51a5.63,5.63,0,0,1,.59-.72l.69-.71a2,2,0,0,0,.72-1.22,1.8,1.8,0,0,0-.66-1.15l-1.55-1.55-3,3-1.55-1.55,7.6-7.6,3.63,3.63A4.67,4.67,0,0,1,145.9,139.73Zm-4.4-2.16-2,2,1.7,1.71a2.63,2.63,0,0,0,.89.64,1.2,1.2,0,0,0,1.31-.41,1.35,1.35,0,0,0,.49-1.36,2.19,2.19,0,0,0-.6-.87Z"/><path class="cls-3" d="M147.78,155.06a5.56,5.56,0,0,1-5-5,5.85,5.85,0,0,1,2-4.29,5.69,5.69,0,0,1,4.29-2,5.58,5.58,0,0,1,5,5,5.69,5.69,0,0,1-2,4.29A5.81,5.81,0,0,1,147.78,155.06Zm.16-2.15a5.35,5.35,0,0,0,4-3.95,2.55,2.55,0,0,0-.8-2.2,2.59,2.59,0,0,0-2.2-.81,5.35,5.35,0,0,0-4,4,2.59,2.59,0,0,0,.81,2.2A2.54,2.54,0,0,0,147.94,152.91Z"/><circle class="cls-4" cx="61.44" cy="61.44" r="61.44"/><path class="cls-3" d="M61.46,97,25.93,61.44,61.46,25.91,97,61.44ZM40.9,61.35,61.45,81.88,82,61.35,61.45,40.8Z"/></g></g></svg>