<svg width="76" height="109" viewBox="0 0 76 109" fill="none" xmlns="http://www.w3.org/2000/svg">
<rect x="0.5" width="75" height="75" rx="37.5" fill="#0891B2"/>
<g clip-path="url(#clip0_60_1460)">
<path d="M38 53.4964L22 37.4964L38 21.5L54 37.4964L38 53.4964ZM28.735 37.4608L38 46.7045L47.2436 37.4608L38 28.1958L28.735 37.4608Z" fill="white"/>
</g>
<rect y="87" width="76" height="22" rx="10" fill="#BFDBFE"/>
<path d="M11.2285 94.4336H13.7129C14.8027 94.4336 15.623 94.5938 16.1738 94.9141C16.7246 95.2344 17 95.7832 17 96.5605C17 96.8926 16.9395 97.1895 16.8184 97.4512C16.6973 97.7129 16.5215 97.9297 16.291 98.1016C16.0605 98.2734 15.7773 98.3906 15.4414 98.4531V98.5117C15.793 98.5703 16.1055 98.6758 16.3789 98.8281C16.6523 98.9805 16.8672 99.1973 17.0234 99.4785C17.1836 99.7559 17.2637 100.113 17.2637 100.551C17.2637 101.074 17.1406 101.52 16.8945 101.887C16.6484 102.25 16.2988 102.527 15.8457 102.719C15.3965 102.906 14.8613 103 14.2402 103H11.2285V94.4336ZM12.4297 98.0371H13.9238C14.6152 98.0371 15.0938 97.9238 15.3594 97.6973C15.625 97.4707 15.7578 97.1406 15.7578 96.707C15.7578 96.2578 15.5996 95.9355 15.2832 95.7402C14.9668 95.541 14.4648 95.4414 13.7773 95.4414H12.4297V98.0371ZM12.4297 99.0273V101.986H14.0645C14.7715 101.986 15.2695 101.848 15.5586 101.57C15.8516 101.293 15.998 100.92 15.998 100.451C15.998 100.154 15.9316 99.9004 15.7988 99.6895C15.6699 99.4746 15.459 99.3105 15.166 99.1973C14.873 99.084 14.4785 99.0273 13.9824 99.0273H12.4297ZM25.6602 94.4336V99.9766C25.6602 100.578 25.5352 101.115 25.2852 101.588C25.0391 102.061 24.666 102.434 24.166 102.707C23.666 102.98 23.0371 103.117 22.2793 103.117C21.2051 103.117 20.3848 102.83 19.8184 102.256C19.2559 101.678 18.9746 100.91 18.9746 99.9531V94.4336H20.1816V99.9062C20.1816 100.629 20.3613 101.174 20.7207 101.541C21.084 101.908 21.623 102.092 22.3379 102.092C22.8301 102.092 23.2324 102.004 23.5449 101.828C23.8574 101.648 24.0879 101.396 24.2363 101.072C24.3887 100.744 24.4648 100.355 24.4648 99.9062V94.4336H25.6602ZM32.7852 100.697C32.7852 101.205 32.6582 101.641 32.4043 102.004C32.1543 102.363 31.8008 102.639 31.3438 102.83C30.8867 103.021 30.3438 103.117 29.7148 103.117C29.3984 103.117 29.0957 103.1 28.8066 103.064C28.5215 103.033 28.2559 102.986 28.0098 102.924C27.7637 102.861 27.541 102.783 27.3418 102.689V101.553C27.666 101.686 28.041 101.811 28.4668 101.928C28.8926 102.041 29.332 102.098 29.7852 102.098C30.1797 102.098 30.5098 102.045 30.7754 101.939C31.0449 101.83 31.248 101.678 31.3848 101.482C31.5215 101.287 31.5898 101.053 31.5898 100.779C31.5898 100.506 31.5234 100.277 31.3906 100.094C31.2578 99.9062 31.0469 99.7344 30.7578 99.5781C30.4727 99.4219 30.0977 99.2559 29.6328 99.0801C29.3086 98.9629 29.0137 98.8301 28.748 98.6816C28.4824 98.5293 28.252 98.3555 28.0566 98.1602C27.8652 97.9648 27.7168 97.7363 27.6113 97.4746C27.5059 97.209 27.4531 96.9043 27.4531 96.5605C27.4531 96.0879 27.5684 95.6836 27.7988 95.3477C28.0332 95.0117 28.3594 94.7559 28.7773 94.5801C29.1953 94.4004 29.6797 94.3105 30.2305 94.3105C30.6836 94.3105 31.1055 94.3555 31.4961 94.4453C31.8906 94.5352 32.2656 94.6582 32.6211 94.8145L32.2402 95.8105C31.9082 95.6738 31.5742 95.5625 31.2383 95.4766C30.9023 95.3906 30.5547 95.3477 30.1953 95.3477C29.8633 95.3477 29.582 95.3965 29.3516 95.4941C29.125 95.5918 28.9512 95.7305 28.8301 95.9102C28.7129 96.0898 28.6543 96.3027 28.6543 96.5488C28.6543 96.8262 28.7168 97.0566 28.8418 97.2402C28.9668 97.4238 29.1641 97.5898 29.4336 97.7383C29.7031 97.8867 30.0547 98.0449 30.4883 98.2129C30.9766 98.4004 31.3906 98.5996 31.7305 98.8105C32.0742 99.0215 32.3359 99.2754 32.5156 99.5723C32.6953 99.8691 32.7852 100.244 32.7852 100.697ZM34.4785 103V94.4336H35.6797V103H34.4785ZM44.9199 103H43.4785L39.043 95.9805H38.9961C39.0078 96.1914 39.0215 96.4238 39.0371 96.6777C39.0527 96.9277 39.0645 97.1914 39.0723 97.4688C39.084 97.7422 39.0918 98.0195 39.0957 98.3008V103H37.9941V94.4336H39.4238L43.8418 101.418H43.8828C43.875 101.246 43.8652 101.033 43.8535 100.779C43.8418 100.525 43.8301 100.258 43.8184 99.9766C43.8105 99.6914 43.8066 99.4219 43.8066 99.168V94.4336H44.9199V103ZM52.0273 103H47.2168V94.4336H52.0273V95.4648H48.418V98.0137H51.8105V99.0332H48.418V101.963H52.0273V103ZM58.7891 100.697C58.7891 101.205 58.6621 101.641 58.4082 102.004C58.1582 102.363 57.8047 102.639 57.3477 102.83C56.8906 103.021 56.3477 103.117 55.7188 103.117C55.4023 103.117 55.0996 103.1 54.8105 103.064C54.5254 103.033 54.2598 102.986 54.0137 102.924C53.7676 102.861 53.5449 102.783 53.3457 102.689V101.553C53.6699 101.686 54.0449 101.811 54.4707 101.928C54.8965 102.041 55.3359 102.098 55.7891 102.098C56.1836 102.098 56.5137 102.045 56.7793 101.939C57.0488 101.83 57.252 101.678 57.3887 101.482C57.5254 101.287 57.5938 101.053 57.5938 100.779C57.5938 100.506 57.5273 100.277 57.3945 100.094C57.2617 99.9062 57.0508 99.7344 56.7617 99.5781C56.4766 99.4219 56.1016 99.2559 55.6367 99.0801C55.3125 98.9629 55.0176 98.8301 54.752 98.6816C54.4863 98.5293 54.2559 98.3555 54.0605 98.1602C53.8691 97.9648 53.7207 97.7363 53.6152 97.4746C53.5098 97.209 53.457 96.9043 53.457 96.5605C53.457 96.0879 53.5723 95.6836 53.8027 95.3477C54.0371 95.0117 54.3633 94.7559 54.7812 94.5801C55.1992 94.4004 55.6836 94.3105 56.2344 94.3105C56.6875 94.3105 57.1094 94.3555 57.5 94.4453C57.8945 94.5352 58.2695 94.6582 58.625 94.8145L58.2441 95.8105C57.9121 95.6738 57.5781 95.5625 57.2422 95.4766C56.9062 95.3906 56.5586 95.3477 56.1992 95.3477C55.8672 95.3477 55.5859 95.3965 55.3555 95.4941C55.1289 95.5918 54.9551 95.7305 54.834 95.9102C54.7168 96.0898 54.6582 96.3027 54.6582 96.5488C54.6582 96.8262 54.7207 97.0566 54.8457 97.2402C54.9707 97.4238 55.168 97.5898 55.4375 97.7383C55.707 97.8867 56.0586 98.0449 56.4922 98.2129C56.9805 98.4004 57.3945 98.5996 57.7344 98.8105C58.0781 99.0215 58.3398 99.2754 58.5195 99.5723C58.6992 99.8691 58.7891 100.244 58.7891 100.697ZM65.375 100.697C65.375 101.205 65.248 101.641 64.9941 102.004C64.7441 102.363 64.3906 102.639 63.9336 102.83C63.4766 103.021 62.9336 103.117 62.3047 103.117C61.9883 103.117 61.6855 103.1 61.3965 103.064C61.1113 103.033 60.8457 102.986 60.5996 102.924C60.3535 102.861 60.1309 102.783 59.9316 102.689V101.553C60.2559 101.686 60.6309 101.811 61.0566 101.928C61.4824 102.041 61.9219 102.098 62.375 102.098C62.7695 102.098 63.0996 102.045 63.3652 101.939C63.6348 101.83 63.8379 101.678 63.9746 101.482C64.1113 101.287 64.1797 101.053 64.1797 100.779C64.1797 100.506 64.1133 100.277 63.9805 100.094C63.8477 99.9062 63.6367 99.7344 63.3477 99.5781C63.0625 99.4219 62.6875 99.2559 62.2227 99.0801C61.8984 98.9629 61.6035 98.8301 61.3379 98.6816C61.0723 98.5293 60.8418 98.3555 60.6465 98.1602C60.4551 97.9648 60.3066 97.7363 60.2012 97.4746C60.0957 97.209 60.043 96.9043 60.043 96.5605C60.043 96.0879 60.1582 95.6836 60.3887 95.3477C60.623 95.0117 60.9492 94.7559 61.3672 94.5801C61.7852 94.4004 62.2695 94.3105 62.8203 94.3105C63.2734 94.3105 63.6953 94.3555 64.0859 94.4453C64.4805 94.5352 64.8555 94.6582 65.2109 94.8145L64.8301 95.8105C64.498 95.6738 64.1641 95.5625 63.8281 95.4766C63.4922 95.3906 63.1445 95.3477 62.7852 95.3477C62.4531 95.3477 62.1719 95.3965 61.9414 95.4941C61.7148 95.5918 61.541 95.7305 61.4199 95.9102C61.3027 96.0898 61.2441 96.3027 61.2441 96.5488C61.2441 96.8262 61.3066 97.0566 61.4316 97.2402C61.5566 97.4238 61.7539 97.5898 62.0234 97.7383C62.293 97.8867 62.6445 98.0449 63.0781 98.2129C63.5664 98.4004 63.9805 98.5996 64.3203 98.8105C64.6641 99.0215 64.9258 99.2754 65.1055 99.5723C65.2852 99.8691 65.375 100.244 65.375 100.697Z" fill="#1E3A8A"/>
<defs>
<clipPath id="clip0_60_1460">
<rect width="32" height="32" fill="white" transform="translate(22 21.5)"/>
</clipPath>
</defs>
</svg>
