<svg width="79" height="109" viewBox="0 0 79 109" fill="none" xmlns="http://www.w3.org/2000/svg">
<path d="M2.00024 37.4982C2.00024 16.7894 18.7911 0 39.5013 0C60.2115 0 76.9995 16.7894 76.9995 37.4982C76.9995 58.2106 60.2115 75 39.5013 75C18.7911 75 2.00024 58.2106 2.00024 37.4982Z" fill="#139FD5"/>
<path d="M48.0083 22.3857C50.9129 22.4323 53.4345 23.2151 55.4973 24.7408C57.5093 26.2346 58.5851 28.3171 58.7756 31.1025H53.7245C53.5144 29.3914 52.6538 28.1426 51.1637 27.3903C50.298 26.9542 49.2157 26.7412 48.009 26.6765V22.3857H48.0083Z" fill="white"/>
<path d="M30.484 27.2013C28.2409 27.2013 26.5771 27.9325 25.3988 29.4415C24.4786 30.5987 24.0163 32.0648 24.0163 33.7955V49.8959H18.8831V33.632C18.8831 30.2018 20.0076 27.4251 22.2224 25.3681C24.403 23.3154 27.1033 22.3174 30.4848 22.3174C33.896 22.3174 36.6262 23.3256 38.8293 25.4095C40.9889 27.4906 42.0857 30.2607 42.0857 33.632V39.2355H36.9576V33.7955C36.9576 32.0648 36.4917 30.5987 35.5751 29.4415C34.3939 27.9325 32.7301 27.2013 30.484 27.2013Z" fill="white"/>
<path d="M56.7769 49.3142C54.7947 51.0063 51.9388 51.8641 48.2789 51.8641C44.5312 51.8641 42.1317 51.0136 40.0136 49.3411C38.0205 47.7754 36.9644 45.6144 36.8677 42.9096H41.9188C42.1317 44.1402 42.5221 45.1048 43.0716 45.759C44.1677 47.0594 45.4507 47.7209 48.0376 47.7209C49.5568 47.7209 50.8085 47.5493 51.7716 47.2186C53.6964 46.5484 54.6762 45.2676 54.6762 43.4206C54.6762 42.3005 54.1761 41.4217 53.1883 40.8053C52.2797 40.2631 50.9081 39.7942 48.9906 39.3843L48.0064 39.167H48.0093V34.2322L52.3691 35.2585C54.5512 35.7739 56.2019 36.4637 57.2711 37.3054C58.9292 38.6145 59.7331 40.4615 59.7331 42.9613C59.7324 45.501 58.7387 47.6358 56.7769 49.3142Z" fill="white"/>
<rect y="87" width="79" height="22" rx="10" fill="#BFDBFE"/>
<path d="M11.4402 94.624H15.1482C15.8442 94.624 16.3882 94.82 16.7802 95.212C17.1802 95.604 17.3802 96.128 17.3802 96.784C17.3802 97.096 17.3362 97.364 17.2482 97.588C17.1602 97.804 17.0482 97.984 16.9122 98.128C16.7762 98.264 16.6202 98.368 16.4442 98.44C16.2682 98.504 16.0962 98.544 15.9282 98.56V98.632C16.0962 98.64 16.2802 98.68 16.4802 98.752C16.6882 98.824 16.8802 98.94 17.0562 99.1C17.2322 99.252 17.3802 99.452 17.5002 99.7C17.6202 99.94 17.6802 100.236 17.6802 100.588C17.6802 100.924 17.6242 101.24 17.5122 101.536C17.4082 101.832 17.2602 102.088 17.0682 102.304C16.8762 102.52 16.6482 102.692 16.3842 102.82C16.1202 102.94 15.8322 103 15.5202 103H11.4402V94.624ZM12.7962 101.836H15.1242C15.4762 101.836 15.7522 101.744 15.9522 101.56C16.1522 101.376 16.2522 101.112 16.2522 100.768V100.36C16.2522 100.016 16.1522 99.752 15.9522 99.568C15.7522 99.384 15.4762 99.292 15.1242 99.292H12.7962V101.836ZM12.7962 98.164H14.8962C15.2322 98.164 15.4922 98.08 15.6762 97.912C15.8602 97.736 15.9522 97.488 15.9522 97.168V96.784C15.9522 96.464 15.8602 96.22 15.6762 96.052C15.4922 95.876 15.2322 95.788 14.8962 95.788H12.7962V98.164ZM20.6344 94.624V99.784C20.6344 100.496 20.7704 101.032 21.0424 101.392C21.3144 101.752 21.7784 101.932 22.4344 101.932C23.0904 101.932 23.5544 101.752 23.8264 101.392C24.0984 101.032 24.2344 100.496 24.2344 99.784V94.624H25.5664V99.568C25.5664 100.184 25.5104 100.716 25.3984 101.164C25.2864 101.612 25.1064 101.984 24.8584 102.28C24.6104 102.568 24.2864 102.784 23.8864 102.928C23.4944 103.072 23.0104 103.144 22.4344 103.144C21.8584 103.144 21.3704 103.072 20.9704 102.928C20.5784 102.784 20.2584 102.568 20.0104 102.28C19.7624 101.984 19.5824 101.612 19.4704 101.164C19.3584 100.716 19.3024 100.184 19.3024 99.568V94.624H20.6344ZM30.0849 103.144C29.3809 103.144 28.7809 103.016 28.2849 102.76C27.7969 102.504 27.3769 102.16 27.0249 101.728L27.9609 100.852C28.2569 101.212 28.5809 101.484 28.9329 101.668C29.2929 101.852 29.7009 101.944 30.1569 101.944C30.6929 101.944 31.0969 101.824 31.3689 101.584C31.6409 101.344 31.7769 101.02 31.7769 100.612C31.7769 100.284 31.6809 100.024 31.4889 99.832C31.2969 99.64 30.9569 99.496 30.4689 99.4L29.7249 99.268C28.9089 99.116 28.2969 98.848 27.8889 98.464C27.4809 98.08 27.2769 97.552 27.2769 96.88C27.2769 96.512 27.3449 96.18 27.4809 95.884C27.6249 95.58 27.8209 95.328 28.0689 95.128C28.3249 94.92 28.6329 94.76 28.9929 94.648C29.3529 94.536 29.7569 94.48 30.2049 94.48C30.8369 94.48 31.3849 94.592 31.8489 94.816C32.3129 95.032 32.7089 95.348 33.0369 95.764L32.0889 96.604C31.8729 96.324 31.6089 96.1 31.2969 95.932C30.9849 95.764 30.5969 95.68 30.1329 95.68C29.6529 95.68 29.2809 95.776 29.0169 95.968C28.7529 96.16 28.6209 96.44 28.6209 96.808C28.6209 97.16 28.7289 97.424 28.9449 97.6C29.1609 97.768 29.4969 97.896 29.9529 97.984L30.6969 98.14C31.5369 98.3 32.1489 98.572 32.5329 98.956C32.9249 99.34 33.1209 99.868 33.1209 100.54C33.1209 100.932 33.0529 101.288 32.9169 101.608C32.7809 101.928 32.5809 102.204 32.3169 102.436C32.0609 102.66 31.7449 102.836 31.3689 102.964C30.9929 103.084 30.5649 103.144 30.0849 103.144ZM34.3888 103V101.896H35.5288V95.728H34.3888V94.624H38.0368V95.728H36.8848V101.896H38.0368V103H34.3888ZM41.997 98.368L41.073 96.592H41.037V103H39.741V94.624H41.253L43.989 99.256L44.913 101.032H44.949V94.624H46.245V103H44.733L41.997 98.368ZM48.3074 103V94.624H53.6714V95.824H49.6634V98.152H53.2994V99.352H49.6634V101.8H53.6714V103H48.3074ZM57.9287 103.144C57.2247 103.144 56.6247 103.016 56.1287 102.76C55.6407 102.504 55.2207 102.16 54.8687 101.728L55.8047 100.852C56.1007 101.212 56.4247 101.484 56.7767 101.668C57.1367 101.852 57.5447 101.944 58.0007 101.944C58.5367 101.944 58.9407 101.824 59.2127 101.584C59.4847 101.344 59.6207 101.02 59.6207 100.612C59.6207 100.284 59.5247 100.024 59.3327 99.832C59.1407 99.64 58.8007 99.496 58.3127 99.4L57.5687 99.268C56.7527 99.116 56.1407 98.848 55.7327 98.464C55.3247 98.08 55.1207 97.552 55.1207 96.88C55.1207 96.512 55.1887 96.18 55.3247 95.884C55.4687 95.58 55.6647 95.328 55.9127 95.128C56.1687 94.92 56.4767 94.76 56.8367 94.648C57.1967 94.536 57.6007 94.48 58.0487 94.48C58.6807 94.48 59.2287 94.592 59.6927 94.816C60.1567 95.032 60.5527 95.348 60.8807 95.764L59.9327 96.604C59.7167 96.324 59.4527 96.1 59.1407 95.932C58.8287 95.764 58.4407 95.68 57.9767 95.68C57.4967 95.68 57.1247 95.776 56.8607 95.968C56.5967 96.16 56.4647 96.44 56.4647 96.808C56.4647 97.16 56.5727 97.424 56.7887 97.6C57.0047 97.768 57.3407 97.896 57.7967 97.984L58.5407 98.14C59.3807 98.3 59.9927 98.572 60.3767 98.956C60.7687 99.34 60.9647 99.868 60.9647 100.54C60.9647 100.932 60.8967 101.288 60.7607 101.608C60.6247 101.928 60.4247 102.204 60.1607 102.436C59.9047 102.66 59.5887 102.836 59.2127 102.964C58.8367 103.084 58.4087 103.144 57.9287 103.144ZM64.9599 103.144C64.2559 103.144 63.6559 103.016 63.1599 102.76C62.6719 102.504 62.2519 102.16 61.8999 101.728L62.8359 100.852C63.1319 101.212 63.4559 101.484 63.8079 101.668C64.1679 101.852 64.5759 101.944 65.0319 101.944C65.5679 101.944 65.9719 101.824 66.2439 101.584C66.5159 101.344 66.6519 101.02 66.6519 100.612C66.6519 100.284 66.5559 100.024 66.3639 99.832C66.1719 99.64 65.8319 99.496 65.3439 99.4L64.5999 99.268C63.7839 99.116 63.1719 98.848 62.7639 98.464C62.3559 98.08 62.1519 97.552 62.1519 96.88C62.1519 96.512 62.2199 96.18 62.3559 95.884C62.4999 95.58 62.6959 95.328 62.9439 95.128C63.1999 94.92 63.5079 94.76 63.8679 94.648C64.2279 94.536 64.6319 94.48 65.0799 94.48C65.7119 94.48 66.2599 94.592 66.7239 94.816C67.1879 95.032 67.5839 95.348 67.9119 95.764L66.9639 96.604C66.7479 96.324 66.4839 96.1 66.1719 95.932C65.8599 95.764 65.4719 95.68 65.0079 95.68C64.5279 95.68 64.1559 95.776 63.8919 95.968C63.6279 96.16 63.4959 96.44 63.4959 96.808C63.4959 97.16 63.6039 97.424 63.8199 97.6C64.0359 97.768 64.3719 97.896 64.8279 97.984L65.5719 98.14C66.4119 98.3 67.0239 98.572 67.4079 98.956C67.7999 99.34 67.9959 99.868 67.9959 100.54C67.9959 100.932 67.9279 101.288 67.7919 101.608C67.6559 101.928 67.4559 102.204 67.1919 102.436C66.9359 102.66 66.6199 102.836 66.2439 102.964C65.8679 103.084 65.4399 103.144 64.9599 103.144Z" fill="#1E3A8A"/>
</svg>
