<svg xmlns="http://www.w3.org/2000/svg" viewBox="0 0 170.13 171.53"><defs><style>.cls-1,.cls-2{fill:#123274;}.cls-1{fill-rule:evenodd;}.cls-3{fill:#fff;}.cls-4{fill:#1d9ed9;}</style></defs><g id="Livello_2" data-name="Livello 2"><g id="Livello_1-2" data-name="Livello 1"><path class="cls-1" d="M140.48,167.85c-.39-.44-.8-.8-1.22-1.23-4.25-4.25-9.83-9.8-15.18-15.13l-13-13-.7-.7c-2.12-2.12-4.76-4.76-4.76-9.83,0-2.28,0-4.93.06-7.48,0-2.35,0-4.62,0-6.44a10.07,10.07,0,0,1,.7-3.84c-1.9.89-2.89,2.76-2.89,5.43,0,3.8-.1,9.55-.1,13.93,0,4,2,6,4,8.06,7.07,7.07,21.78,21.7,30.08,30,3.36,3.36,5.47,4.26,7.34,3.73A20.92,20.92,0,0,1,140.48,167.85Z"/><path class="cls-1" d="M166.41,142.17,136.23,112c-2-2-4-4-8.06-4H126a26,26,0,0,1,.82,3,16.27,16.27,0,0,1-.67,9.27,4.41,4.41,0,0,1,.08.72,5,5,0,1,1-6.12-4.88,11,11,0,0,0-.17-4,18,18,0,0,0-1.43-4.09l-4.4,0c-3.82,0-5.84,2.2-5.84,6s-.11,9.54-.11,13.92c0,4,2,6.06,4,8.06,7.07,7.07,21.79,21.71,30.09,30,6,6.05,8,4.12,11.92.23l12.16-12.17C170.33,150.11,172.34,148.1,166.41,142.17Z"/><path class="cls-1" d="M117.25,97.91c-5-5-11-7.7-16.24-7.88l-1.2,3,.67,0a14.38,14.38,0,0,1,3,.33,26.06,26.06,0,0,1,18.41,18.4c.8,3.81.12,7-1.92,9.06a7.05,7.05,0,0,1-1.86,1.32,5,5,0,0,0,2,2.3,10.44,10.44,0,0,0,2-1.5C127.63,117.31,125.47,106.12,117.25,97.91Z"/><path class="cls-2" d="M104.52,120.06a27.16,27.16,0,0,1-5.28-4.14,24,24,0,0,1-6.74-11.66,11.66,11.66,0,0,1,.26-6.44L90.85,95a13.38,13.38,0,0,0-1.28,9.92A27.09,27.09,0,0,0,97.11,118a29.34,29.34,0,0,0,7.41,5.43Z"/><path class="cls-3" d="M141.64,135.11a2.75,2.75,0,0,1-.81,1.51,2.35,2.35,0,0,1-1.47.76,2.55,2.55,0,0,1-1-.14,2.4,2.4,0,0,1,.2,1.54,2.76,2.76,0,0,1-.81,1.41,3.23,3.23,0,0,1-1.55.88,3.13,3.13,0,0,1-1.14.06,3,3,0,0,1-1.24-.48,7.34,7.34,0,0,1-1.17-1l-3.43-3.43,7.6-7.59,3.67,3.67A3.31,3.31,0,0,1,141.64,135.11Zm-7.57-.69-2,2,1.84,1.85a2.47,2.47,0,0,0,.9.63,1.35,1.35,0,0,0,1.45-.45,1.14,1.14,0,0,0,.33-1.3,2.7,2.7,0,0,0-.63-.88Zm2.94-2.93-1.68,1.68,1.85,1.84a2.17,2.17,0,0,0,1,.62,1,1,0,0,0,1-.36,1,1,0,0,0,.3-1.11,4.47,4.47,0,0,0-.78-1Z"/><path class="cls-3" d="M139.05,146.09l-1.58-1.57,7.6-7.6,1.58,1.57Z"/><path class="cls-3" d="M142.13,146.49l8.8-1-3.79-3.79,1.35-1.35,5.75,5.76L153,147.36l-8.92,1.06,3.95,3.94-1.34,1.34-5.87-5.87Z"/><path class="cls-4" d="M0,61.44a61.44,61.44,0,1,1,61.44,61.43A61.44,61.44,0,0,1,0,61.44Z"/><path class="cls-3" d="M75.38,36.68a20.68,20.68,0,0,1,12.27,3.86C91,43,92.71,46.39,93,51H84.75a7.46,7.46,0,0,0-4.2-6.08,13,13,0,0,0-5.17-1.17Z"/><path class="cls-3" d="M46.67,44.56c-3.67,0-6.4,1.2-8.33,3.67a11.18,11.18,0,0,0-2.27,7.14V81.75H27.66V55.1c0-5.62,1.84-10.17,5.47-13.54s8-5,13.54-5,10.06,1.66,13.67,5.07,5.34,7.95,5.34,13.47v9.18H57.27V55.37A11.17,11.17,0,0,0,55,48.23C53.08,45.76,50.35,44.56,46.67,44.56Z"/><path class="cls-3" d="M89.75,80.8C86.5,83.57,81.82,85,75.83,85c-6.15,0-10.08-1.39-13.55-4.13A13.36,13.36,0,0,1,57.13,70.3h8.28A9.73,9.73,0,0,0,67.29,75c1.8,2.13,3.9,3.21,8.14,3.21a19,19,0,0,0,6.12-.82c3.15-1.09,4.75-3.19,4.75-6.22a4.78,4.78,0,0,0-2.43-4.28A23.42,23.42,0,0,0,77,64.53l-1.61-.36h0V56.09l7.14,1.68a21,21,0,0,1,8,3.35c2.71,2.15,4,5.17,4,9.27A13.19,13.19,0,0,1,89.75,80.8Z"/></g></g></svg>