<svg width="30" height="30" viewBox="0 0 30 30" fill="none" xmlns="http://www.w3.org/2000/svg">
<g clip-path="url(#clip0_66_1028)">
<g clip-path="url(#clip1_66_1028)">
<path d="M12 0.25C18.4893 0.25 23.75 5.51065 23.75 12C23.75 18.4893 18.4893 23.75 12 23.75C5.51065 23.75 0.25 18.4893 0.25 12C0.25 5.51065 5.51065 0.25 12 0.25Z" fill="#0891B2" stroke="white" stroke-width="0.5"/>
<mask id="mask0_66_1028" style="mask-type:luminance" maskUnits="userSpaceOnUse" x="6" y="6" width="12" height="12">
<path d="M17.12 6.87988H6.88V17.1199H17.12V6.87988Z" fill="white"/>
</mask>
<g mask="url(#mask0_66_1028)">
<path d="M12 17.1187L6.88 11.9987L12 6.87988L17.12 11.9987L12 17.1187ZM9.03521 11.9873L12 14.9453L14.958 11.9873L12 9.02254L9.03521 11.9873Z" fill="white"/>
</g>
</g>
<rect x="14" y="14" width="16" height="16" rx="4" fill="#BAE6FD"/>
<path d="M19.6953 18.3613H21.7656C22.6738 18.3613 23.3574 18.4948 23.8164 18.7617C24.2754 19.0286 24.5049 19.486 24.5049 20.1338C24.5049 20.4105 24.4544 20.6579 24.3535 20.876C24.2526 21.0941 24.1061 21.2747 23.9141 21.418C23.722 21.5612 23.486 21.6589 23.2061 21.7109V21.7598C23.499 21.8086 23.7594 21.8965 23.9873 22.0234C24.2152 22.1504 24.3942 22.3311 24.5244 22.5654C24.6579 22.7965 24.7246 23.0944 24.7246 23.459C24.7246 23.8952 24.6221 24.2663 24.417 24.5723C24.2119 24.875 23.9206 25.1061 23.543 25.2656C23.1686 25.4219 22.7227 25.5 22.2051 25.5H19.6953V18.3613ZM20.6963 21.3643H21.9414C22.5176 21.3643 22.9163 21.2699 23.1377 21.0811C23.359 20.8923 23.4697 20.6172 23.4697 20.2559C23.4697 19.8815 23.3379 19.613 23.0742 19.4502C22.8105 19.2842 22.3923 19.2012 21.8193 19.2012H20.6963V21.3643ZM20.6963 22.1895V24.6553H22.0586C22.6478 24.6553 23.0628 24.5397 23.3037 24.3086C23.5479 24.0775 23.6699 23.7666 23.6699 23.376C23.6699 23.1286 23.6146 22.917 23.5039 22.7412C23.3965 22.5622 23.2207 22.4255 22.9766 22.3311C22.7324 22.2367 22.4036 22.1895 21.9902 22.1895H20.6963Z" fill="#0C4A6E"/>
</g>
<defs>
<clipPath id="clip0_66_1028">
<rect width="30" height="30" fill="white"/>
</clipPath>
<clipPath id="clip1_66_1028">
<rect width="24" height="24" fill="white"/>
</clipPath>
</defs>
</svg>
