<svg width="30" height="30" viewBox="0 0 30 30" fill="none" xmlns="http://www.w3.org/2000/svg">
<g clip-path="url(#clip0_66_1050)">
<path d="M0.25 11.9995C0.25 5.51076 5.51119 0.25 12.0005 0.25C18.4897 0.25 23.75 5.51074 23.75 11.9995C23.75 18.4895 18.4897 23.7502 12.0005 23.7502C5.5112 23.7502 0.25 18.4895 0.25 11.9995Z" fill="#139FD5" stroke="white" stroke-width="0.5"/>
<path d="M14.973 8.306V7.42399C15.7494 7.47593 16.4179 7.70944 16.9705 8.11808C17.4844 8.49968 17.7894 9.01252 17.8906 9.70295H16.7617C16.6419 9.18433 16.3328 8.78808 15.8452 8.54188L15.845 8.54178C15.5881 8.41239 15.2896 8.34052 14.973 8.306Z" fill="white" stroke="white" stroke-width="0.5"/>
<path d="M6.79523 10.8146V15.7168H5.65259V10.7623C5.65259 9.72406 5.99045 8.90552 6.64131 8.30101L6.64131 8.30102L6.64253 8.29987C7.28793 7.69233 8.08799 7.3916 9.11517 7.3916C10.1514 7.3916 10.9605 7.69528 11.6128 8.31193C12.2481 8.92459 12.5775 9.74258 12.5775 10.7623V12.3054H11.4365V10.8146C11.4365 10.2148 11.2743 9.68835 10.9405 9.26668C10.5066 8.71275 9.89529 8.45446 9.11494 8.45446C8.33567 8.45446 7.72425 8.71266 7.29128 9.26661C6.956 9.68867 6.79523 10.2153 6.79523 10.8146Z" fill="white" stroke="white" stroke-width="0.5"/>
<path d="M14.9731 12.3331V11.2703L16.0608 11.5263C16.7436 11.6876 17.2314 11.8976 17.5322 12.1345C17.9912 12.497 18.2247 13.0089 18.2247 13.7479L14.9731 12.3331ZM14.9731 12.3331L15.0902 12.359C15.7123 12.492 16.1826 12.6489 16.5085 12.8433L16.5127 12.8459L16.5127 12.8459C16.8985 13.0866 17.1065 13.4461 17.1065 13.8949C17.1065 14.2367 17.0149 14.5426 16.8213 14.7957C16.6291 15.047 16.351 15.2274 16.0092 15.3464L16.0082 15.3467C15.6649 15.4646 15.2344 15.521 14.7321 15.521C14.2983 15.521 13.9527 15.4658 13.6619 15.3437C13.3673 15.22 13.1464 15.0352 12.9518 14.8043L12.9516 14.804C12.7735 14.592 12.6488 14.3105 12.5702 13.9814H11.4273C11.5075 14.6558 11.8072 15.1909 12.3189 15.5929L12.3194 15.5933C12.9456 16.0878 13.6561 16.3468 14.8094 16.3468C15.9448 16.3468 16.7926 16.0806 17.3664 15.5907C17.9396 15.1003 18.2245 14.4861 18.2247 13.7479L14.9731 12.3331Z" fill="white" stroke="white" stroke-width="0.5"/>
<rect x="14" y="14" width="16" height="16" rx="4" fill="#A7F3D0"/>
<path d="M21.8828 18.3613C22.804 18.3613 23.4762 18.5452 23.8994 18.9131C24.3258 19.2809 24.5391 19.8034 24.5391 20.4805C24.5391 20.7865 24.4902 21.0778 24.3926 21.3545C24.2949 21.6279 24.1354 21.8704 23.9141 22.082C23.696 22.2904 23.4079 22.4564 23.0498 22.5801C22.6917 22.7005 22.2523 22.7607 21.7314 22.7607H20.916V25.5H19.915V18.3613H21.8828ZM21.8047 19.2012H20.916V21.916H21.624C22.0374 21.916 22.3841 21.8704 22.6641 21.7793C22.944 21.6849 23.1556 21.5352 23.2988 21.3301C23.4421 21.125 23.5137 20.8548 23.5137 20.5195C23.5137 20.0768 23.3753 19.7464 23.0986 19.5283C22.8219 19.3102 22.3906 19.2012 21.8047 19.2012Z" fill="#064E3B"/>
</g>
<defs>
<clipPath id="clip0_66_1050">
<rect width="30" height="30" fill="white"/>
</clipPath>
</defs>
</svg>
