<svg width="30" height="30" viewBox="0 0 30 30" fill="none" xmlns="http://www.w3.org/2000/svg">
<g clip-path="url(#clip0_66_1040)">
<g clip-path="url(#clip1_66_1040)">
<path d="M12 0.25C18.4893 0.25 23.75 5.51065 23.75 12C23.75 18.4893 18.4893 23.75 12 23.75C5.51065 23.75 0.25 18.4893 0.25 12C0.25 5.51065 5.51065 0.25 12 0.25Z" fill="#0891B2" stroke="white" stroke-width="0.5"/>
<mask id="mask0_66_1040" style="mask-type:luminance" maskUnits="userSpaceOnUse" x="6" y="6" width="12" height="12">
<path d="M17.12 6.87988H6.88V17.1199H17.12V6.87988Z" fill="white"/>
</mask>
<g mask="url(#mask0_66_1040)">
<path d="M12 17.1187L6.88 11.9987L12 6.87988L17.12 11.9987L12 17.1187ZM9.03521 11.9873L12 14.9453L14.958 11.9873L12 9.02254L9.03521 11.9873Z" fill="white"/>
</g>
</g>
<rect x="14" y="14" width="16" height="16" rx="4" fill="#A7F3D0"/>
<path d="M21.8828 18.3613C22.804 18.3613 23.4762 18.5452 23.8994 18.9131C24.3258 19.2809 24.5391 19.8034 24.5391 20.4805C24.5391 20.7865 24.4902 21.0778 24.3926 21.3545C24.2949 21.6279 24.1354 21.8704 23.9141 22.082C23.696 22.2904 23.4079 22.4564 23.0498 22.5801C22.6917 22.7005 22.2523 22.7607 21.7314 22.7607H20.916V25.5H19.915V18.3613H21.8828ZM21.8047 19.2012H20.916V21.916H21.624C22.0374 21.916 22.3841 21.8704 22.6641 21.7793C22.944 21.6849 23.1556 21.5352 23.2988 21.3301C23.4421 21.125 23.5137 20.8548 23.5137 20.5195C23.5137 20.0768 23.3753 19.7464 23.0986 19.5283C22.8219 19.3102 22.3906 19.2012 21.8047 19.2012Z" fill="#064E3B"/>
</g>
<defs>
<clipPath id="clip0_66_1040">
<rect width="30" height="30" fill="white"/>
</clipPath>
<clipPath id="clip1_66_1040">
<rect width="24" height="24" fill="white"/>
</clipPath>
</defs>
</svg>
