<svg width="75" height="75" viewBox="0 0 75 75" fill="none" xmlns="http://www.w3.org/2000/svg">
<path d="M0 37.4982C0 16.7894 16.7909 0 37.5011 0C58.2113 0 74.9993 16.7894 74.9993 37.4982C74.9993 58.2106 58.2113 75 37.5011 75C16.7909 75 0 58.2106 0 37.4982Z" fill="#139FD5"/>
<path d="M46.0081 22.3857C48.9127 22.4323 51.4342 23.2151 53.4971 24.7408C55.5091 26.2346 56.5849 28.3171 56.7753 31.1025H51.7242C51.5142 29.3914 50.6535 28.1426 49.1634 27.3903C48.2977 26.9542 47.2154 26.7412 46.0088 26.6765V22.3857H46.0081Z" fill="white"/>
<path d="M28.4838 27.2013C26.2407 27.2013 24.5768 27.9325 23.3986 29.4415C22.4783 30.5987 22.016 32.0648 22.016 33.7955V49.8959H16.8828V33.632C16.8828 30.2018 18.0073 27.4251 20.2221 25.3681C22.4027 23.3154 25.1031 22.3174 28.4845 22.3174C31.8958 22.3174 34.6259 23.3256 36.8291 25.4095C38.9886 27.4906 40.0855 30.2607 40.0855 33.632V39.2355H34.9574V33.7955C34.9574 32.0648 34.4914 30.5987 33.5749 29.4415C32.3937 27.9325 30.7299 27.2013 28.4838 27.2013Z" fill="white"/>
<path d="M54.7766 49.3142C52.7944 51.0063 49.9385 51.8641 46.2787 51.8641C42.5309 51.8641 40.1315 51.0136 38.0134 49.3411C36.0203 47.7754 34.9641 45.6144 34.8674 42.9096H39.9185C40.1315 44.1402 40.5218 45.1048 41.0713 45.759C42.1675 47.0594 43.4504 47.7209 46.0374 47.7209C47.5565 47.7209 48.8082 47.5493 49.7713 47.2186C51.6961 46.5484 52.6759 45.2676 52.6759 43.4206C52.6759 42.3005 52.1759 41.4217 51.188 40.8053C50.2794 40.2631 48.9078 39.7942 46.9903 39.3843L46.0061 39.167H46.009V34.2322L50.3688 35.2585C52.5509 35.7739 54.2017 36.4637 55.2709 37.3054C56.9289 38.6145 57.7328 40.4615 57.7328 42.9613C57.7321 45.501 56.7385 47.6358 54.7766 49.3142Z" fill="white"/>
</svg>
