<svg width="30" height="30" viewBox="0 0 30 30" fill="none" xmlns="http://www.w3.org/2000/svg">
<g clip-path="url(#clip0_66_1059)">
<path d="M0.25 11.9995C0.25 5.51076 5.51119 0.25 12.0005 0.25C18.4897 0.25 23.75 5.51074 23.75 11.9995C23.75 18.4895 18.4897 23.7502 12.0005 23.7502C5.5112 23.7502 0.25 18.4895 0.25 11.9995Z" fill="#139FD5" stroke="white" stroke-width="0.5"/>
<path d="M14.973 8.306V7.42399C15.7494 7.47593 16.4179 7.70944 16.9705 8.11808C17.4844 8.49968 17.7894 9.01252 17.8906 9.70295H16.7617C16.6419 9.18433 16.3328 8.78808 15.8452 8.54188L15.845 8.54178C15.5881 8.41239 15.2896 8.34052 14.973 8.306Z" fill="white" stroke="white" stroke-width="0.5"/>
<path d="M6.79523 10.8146V15.7168H5.65259V10.7623C5.65259 9.72406 5.99045 8.90552 6.64131 8.30101L6.64131 8.30102L6.64253 8.29987C7.28793 7.69233 8.08799 7.3916 9.11517 7.3916C10.1514 7.3916 10.9605 7.69528 11.6128 8.31193C12.2481 8.92459 12.5775 9.74258 12.5775 10.7623V12.3054H11.4365V10.8146C11.4365 10.2148 11.2743 9.68835 10.9405 9.26668C10.5066 8.71275 9.89529 8.45446 9.11494 8.45446C8.33567 8.45446 7.72425 8.71266 7.29128 9.26661C6.956 9.68867 6.79523 10.2153 6.79523 10.8146Z" fill="white" stroke="white" stroke-width="0.5"/>
<path d="M14.9731 12.3331V11.2703L16.0608 11.5263C16.7436 11.6876 17.2314 11.8976 17.5322 12.1345C17.9912 12.497 18.2247 13.0089 18.2247 13.7479L14.9731 12.3331ZM14.9731 12.3331L15.0902 12.359C15.7123 12.492 16.1826 12.6489 16.5085 12.8433L16.5127 12.8459L16.5127 12.8459C16.8985 13.0866 17.1065 13.4461 17.1065 13.8949C17.1065 14.2367 17.0149 14.5426 16.8213 14.7957C16.6291 15.047 16.351 15.2274 16.0092 15.3464L16.0082 15.3467C15.6649 15.4646 15.2344 15.521 14.7321 15.521C14.2983 15.521 13.9527 15.4658 13.6619 15.3437C13.3673 15.22 13.1464 15.0352 12.9518 14.8043L12.9516 14.804C12.7735 14.592 12.6488 14.3105 12.5702 13.9814H11.4273C11.5075 14.6558 11.8072 15.1909 12.3189 15.5929L12.3194 15.5933C12.9456 16.0878 13.6561 16.3468 14.8094 16.3468C15.9448 16.3468 16.7926 16.0806 17.3664 15.5907C17.9396 15.1003 18.2245 14.4861 18.2247 13.7479L14.9731 12.3331Z" fill="white" stroke="white" stroke-width="0.5"/>
<rect x="14" y="14" width="16" height="16" rx="4" fill="#BAE6FD"/>
<path d="M19.6953 18.3613H21.7656C22.6738 18.3613 23.3574 18.4948 23.8164 18.7617C24.2754 19.0286 24.5049 19.486 24.5049 20.1338C24.5049 20.4105 24.4544 20.6579 24.3535 20.876C24.2526 21.0941 24.1061 21.2747 23.9141 21.418C23.722 21.5612 23.486 21.6589 23.2061 21.7109V21.7598C23.499 21.8086 23.7594 21.8965 23.9873 22.0234C24.2152 22.1504 24.3942 22.3311 24.5244 22.5654C24.6579 22.7965 24.7246 23.0944 24.7246 23.459C24.7246 23.8952 24.6221 24.2663 24.417 24.5723C24.2119 24.875 23.9206 25.1061 23.543 25.2656C23.1686 25.4219 22.7227 25.5 22.2051 25.5H19.6953V18.3613ZM20.6963 21.3643H21.9414C22.5176 21.3643 22.9163 21.2699 23.1377 21.0811C23.359 20.8923 23.4697 20.6172 23.4697 20.2559C23.4697 19.8815 23.3379 19.613 23.0742 19.4502C22.8105 19.2842 22.3923 19.2012 21.8193 19.2012H20.6963V21.3643ZM20.6963 22.1895V24.6553H22.0586C22.6478 24.6553 23.0628 24.5397 23.3037 24.3086C23.5479 24.0775 23.6699 23.7666 23.6699 23.376C23.6699 23.1286 23.6146 22.917 23.5039 22.7412C23.3965 22.5622 23.2207 22.4255 22.9766 22.3311C22.7324 22.2367 22.4036 22.1895 21.9902 22.1895H20.6963Z" fill="#0C4A6E"/>
</g>
<defs>
<clipPath id="clip0_66_1059">
<rect width="30" height="30" fill="white"/>
</clipPath>
</defs>
</svg>
