<svg version="1.2" xmlns="http://www.w3.org/2000/svg" viewBox="0 0 200 200" width="200" height="200">
	<title>crostino-svg</title>
	<style>
		.s0 { fill: #000000 } 
		.s1 { fill: #ec7a08 } 
	</style>
	<path id="Layer" class="s0" d="m85 142c-26 0-52-10-52-32.6v-24.4c1.2-17.8 22.6-27 64-27 60.8 0 70 19.8 70 31.4v24.6c0 10.3-8.1 16.2-24.2 17.4l-2.1-4.1c22.3-0.8 22.3-10.1 22.3-13.3v-14c-4.8 4.8-13.6 7.2-26.6 7.2q-3.3 0-6 0.3l-1.1-2q-0.4-0.7-0.7-1.1-0.3-0.4-0.8-0.6c2.6-0.4 5.5-0.6 8.8-0.6 26.4 0 26.4-10.2 26.4-13.6 0-24.8-46.2-27.6-66-27.6-38.8 0-59 7.8-60 23.2-0.4 5.6 1.6 10.6 5.6 15 7.8 8.4 24.2 13.6 42.6 13.6 12.5 0 19.5-2.6 26.2-5.1l0.8-0.3c2.8-1.1 5.7-2.2 8.9-3.2q0 0.2-0.1 0.3l-2.4 4.7q-2.1 0.7-4.2 1.4l-1 0.4c-7.2 2.8-14.8 5.6-28.4 5.6-19.8 0-36.8-5.6-45.4-14.8-1-1-1.8-2.2-2.6-3.4v10c0 19.8 24.2 28.6 48.2 28.6 9.1 0 15.2-1.4 20.5-3.1l-2.6 5c-4.8 1.2-10.5 2.1-18.1 2.1zm1-71.6c1.3 0 2.4-0.6 2.4-1.2 0-0.6-1.1-1.2-2.4-1.2-1.3 0-2.4 0.6-2.4 1.2 0 0.7 1.1 1.2 2.4 1.2zm26.4 8.3c2.7 0 4.9-1.1 4.9-2.4 0-1.3-2.2-2.3-4.9-2.4-2.7 0-4.9 1.1-4.9 2.4 0 1.3 2.2 2.4 4.9 2.4zm-45.6 6.2c0 1.3-2.2 2.4-4.9 2.4-2.7 0-4.9-1.1-4.9-2.4 0-1.3 2.2-2.4 4.9-2.4 2.7 0.1 4.9 1.1 4.9 2.4zm17.4 17.5c2.7 0 4.9-1.1 4.9-2.4 0-1.3-2.1-2.4-4.9-2.4-2.7 0-4.9 1.1-4.9 2.4 0 1.3 2.2 2.4 4.9 2.4zm26.4-13.1c1.5 0 2.8-0.6 2.8-1.4 0-0.8-1.3-1.4-2.8-1.4-1.5 0-2.8 0.6-2.8 1.4 0 0.8 1.3 1.4 2.8 1.4zm26.3-5.5c1.3 0 2.4-0.6 2.4-1.2 0-0.7-1.1-1.2-2.4-1.2-1.3 0-2.4 0.6-2.4 1.2 0 0.7 1.1 1.2 2.4 1.2zm-9.3 11.6c1.3 0 2.4-0.6 2.4-1.2 0-0.6-1.1-1.2-2.4-1.2-1.3 0-2.4 0.6-2.4 1.2 0 0.7 1.1 1.2 2.4 1.2zm-42.3-11.6c1.3 0 2.4-0.6 2.4-1.2 0-0.7-1.1-1.2-2.4-1.2-1.3 0-2.4 0.6-2.4 1.2 0 0.7 1.1 1.2 2.4 1.2z"/>
	<path id="Layer" fill-rule="evenodd" class="s1" d="m125.2 103q0.6 0 1.1 0.1 0.7 0.2 1.2 0.6 0.7 0.2 1.1 0.7 0.3 0.4 0.7 1.1l28.4 54.5q0.6 1.1 0.5 2.3 0 1.2-0.6 2.4-0.3 0.5-0.7 1-0.5 0.4-1 0.6-0.6 0.3-1.2 0.6-0.5 0.1-1.2 0.1h-56.7q-0.6 0-1.3-0.1-0.5-0.3-1-0.6-0.7-0.2-1.1-0.6-0.4-0.5-0.7-1-0.7-1.2-0.7-2.4 0-1.2 0.7-2.3l28.3-54.5q0.3-0.7 0.8-1.1 0.4-0.5 0.9-0.7 0.5-0.4 1.2-0.6 0.6-0.1 1.3-0.1zm-24.6 56.7h49.2l-24.6-48zm29.1-5.4c-0.1 0.3-0.5 0.6-0.9 0.6q-1.4 0-2.7 0-2.1 0-4.2 0c-0.6 0-1.6 0-1.6-0.9v-3c0-0.5 0.4-0.9 1-0.9h7.5c0.5 0 1 0.4 1 0.9v3q0 0.1-0.1 0.3zm0-9.4c-0.1 0.4-0.4 0.6-0.9 0.6q-1.3 0-2.7 0-2.1 0-4.1 0c-0.7 0-1.7-0.1-1.7-1v-14.6c0-0.5 0.4-0.9 1.1-0.9h7.4c0.6 0 1 0.4 1 0.9v14.6q0 0.3-0.1 0.4z"/>
</svg>