<?xml version="1.0" encoding="utf-8"?>
<!-- Generator: Adobe Illustrator 22.0.1, SVG Export Plug-In . SVG Version: 6.00 Build 0)  -->
<svg version="1.1" id="Livello_1" xmlns="http://www.w3.org/2000/svg" xmlns:xlink="http://www.w3.org/1999/xlink" x="0px" y="0px"
	 viewBox="0 0 200 200" style="enable-background:new 0 0 200 200;" xml:space="preserve">
<style type="text/css">
	.st0{clip-path:url(#SVGID_2_);fill:#fff;}
</style>
<g>
	<defs>
		<rect id="SVGID_1_" x="33" y="58" width="134" height="84"/>
	</defs>
	<clipPath id="SVGID_2_">
		<use xlink:href="#SVGID_1_"  style="overflow:visible;"/>
	</clipPath>
	<path class="st0" d="M37,109.4v-10c0.8,1.2,1.6,2.4,2.6,3.4c8.6,9.2,25.6,14.8,45.4,14.8c13.6,0,21.2-2.8,28.4-5.6
		c6.6-2.4,12.6-4.8,23-4.8c13,0,21.8-2.4,26.6-7.2v14c0,3.4,0,13.6-26.4,13.4c-11.2,0-17.8,2.6-24.4,5.2c-7,2.6-14,5.4-27,5.4
		C61.2,138,37,129.2,37,109.4 M163,89.6c0,3.4,0,13.6-26.4,13.6c-11.2,0-17.8,2.6-24.4,5.2c-7,2.6-14,5.4-27,5.4
		c-18.4,0-34.8-5.2-42.6-13.6c-4-4.4-6-9.4-5.6-15C38,69.8,58.2,62,97,62C116.8,62,163,64.8,163,89.6 M33,86.6v22.8
		C33,132,59,142,85,142c13.6,0,21.2-2.8,28.4-5.6c6.6-2.4,12.6-4.8,23-4.8c20.4,0,30.6-6,30.6-17.6V89.4c0-11.6-9.2-31.4-70-31.4
		c-41.4,0-62.8,9.2-64,27V86.6C33,86.6,33,86.8,33,86.6"/>
	<path class="st0" d="M66.8,84.9c0,1.3-2.2,2.4-4.9,2.4c-2.7,0-4.9-1.1-4.9-2.4c0-1.3,2.2-2.4,4.9-2.4
		C64.6,82.6,66.8,83.6,66.8,84.9"/>
	<path class="st0" d="M89.1,100c0,1.3-2.2,2.4-4.9,2.4c-2.7,0-4.9-1.1-4.9-2.4s2.2-2.4,4.9-2.4C87,97.6,89.1,98.7,89.1,100"/>
	<path class="st0" d="M117.3,76.3c0,1.3-2.2,2.4-4.9,2.4c-2.7,0-4.9-1.1-4.9-2.4c0-1.3,2.2-2.4,4.9-2.4
		C115.1,74,117.3,75,117.3,76.3"/>
	<path class="st0" d="M113.4,87.9c0,0.8-1.3,1.4-2.8,1.4s-2.8-0.6-2.8-1.4c0-0.8,1.3-1.4,2.8-1.4S113.4,87.1,113.4,87.9"/>
	<path class="st0" d="M139.3,82.6c0,0.6-1.1,1.2-2.4,1.2c-1.3,0-2.4-0.5-2.4-1.2c0-0.6,1.1-1.2,2.4-1.2
		C138.2,81.4,139.3,81.9,139.3,82.6"/>
	<path class="st0" d="M88.4,69.2c0,0.6-1.1,1.2-2.4,1.2s-2.4-0.5-2.4-1.2c0-0.6,1.1-1.2,2.4-1.2S88.4,68.6,88.4,69.2"/>
	<path class="st0" d="M130,94.2c0,0.6-1.1,1.2-2.4,1.2c-1.3,0-2.4-0.5-2.4-1.2c0-0.6,1.1-1.2,2.4-1.2C128.9,93,130,93.6,130,94.2"/>
	<path class="st0" d="M87.7,82.6c0,0.6-1.1,1.2-2.4,1.2s-2.4-0.5-2.4-1.2c0-0.6,1.1-1.2,2.4-1.2S87.7,81.9,87.7,82.6"/>
</g>
</svg>
