<svg width="80" height="109" viewBox="0 0 80 109" fill="none" xmlns="http://www.w3.org/2000/svg">
<rect x="2.5" width="75" height="75" rx="37.5" fill="#4B5563"/>
<path d="M27.6119 32.0373C27.6119 32.5224 26.7911 32.9328 25.7835 32.9328C24.7762 32.9328 23.9552 32.5224 23.9552 32.0373C23.9552 31.5522 24.7762 31.1418 25.7835 31.1418C26.7911 31.1791 27.6119 31.5522 27.6119 32.0373Z" fill="white"/>
<path d="M34.1044 38.5672C35.1119 38.5672 35.9327 38.1567 35.9327 37.6716C35.9327 37.1866 35.1493 36.7761 34.1044 36.7761C33.097 36.7761 32.276 37.1866 32.276 37.6716C32.276 38.1567 33.097 38.5672 34.1044 38.5672Z" fill="white"/>
<path d="M46.4551 28.8284C46.4551 29.3134 45.6344 29.7239 44.6268 29.7239C43.6195 29.7239 42.7985 29.3134 42.7985 28.8284C42.7985 28.3433 43.6195 27.9328 44.6268 27.9328C45.6344 27.9701 46.4551 28.3433 46.4551 28.8284Z" fill="white"/>
<path d="M43.9551 33.6791C44.5148 33.6791 45 33.4552 45 33.1567C45 32.8582 44.5148 32.6343 43.9551 32.6343C43.3954 32.6343 42.9104 32.8582 42.9104 33.1567C42.9104 33.4552 43.3954 33.6791 43.9551 33.6791Z" fill="white"/>
<path d="M54.6641 31.1791C54.6641 31.403 54.2538 31.6269 53.7686 31.6269C53.2836 31.6269 52.8731 31.4403 52.8731 31.1791C52.8731 30.9552 53.2836 30.7313 53.7686 30.7313C54.2538 30.7313 54.6641 30.9179 54.6641 31.1791Z" fill="white"/>
<path d="M34.7761 26.6269C35.2613 26.6269 35.6716 26.403 35.6716 26.1791C35.6716 25.9552 35.2613 25.7313 34.7761 25.7313C34.2911 25.7313 33.8806 25.9552 33.8806 26.1791C33.8806 26.4403 34.2911 26.6269 34.7761 26.6269Z" fill="white"/>
<path d="M51.194 35.5075C51.194 35.7313 50.7837 35.9552 50.2985 35.9552C49.8135 35.9552 49.4031 35.7687 49.4031 35.5075C49.4031 35.2836 49.8135 35.0597 50.2985 35.0597C50.7837 35.0597 51.194 35.2836 51.194 35.5075Z" fill="white"/>
<path d="M34.5149 31.6269C35 31.6269 35.4103 31.403 35.4103 31.1791C35.4103 30.9179 35 30.7313 34.5149 30.7313C34.0299 30.7313 33.6194 30.9552 33.6194 31.1791C33.6194 31.4403 34.0299 31.6269 34.5149 31.6269Z" fill="white"/>
<path fill-rule="evenodd" clip-rule="evenodd" d="M15 41.1791C15 49.6119 24.7015 53.3433 34.403 53.3433C39.4776 53.3433 42.3135 52.2985 45 51.2537L45.3817 51.1145C47.6994 50.2677 49.9028 49.4627 53.5821 49.4627C61.194 49.4627 65 47.2239 65 42.8955V33.7164C65 29.3881 61.5671 22 38.8806 22C23.4329 22 15.4478 25.4328 15 32.0746V41.1791ZM16.4925 41.1791V37.4478C16.791 37.8955 17.0896 38.3433 17.4627 38.7164C20.6717 42.1493 27.015 44.2388 34.403 44.2388C39.4776 44.2388 42.3135 43.194 45 42.1493L45.3817 42.01C47.6994 41.1632 49.9028 40.3582 53.5821 40.3582C58.4328 40.3582 61.7165 39.4627 63.5075 37.6716V42.8955C63.5075 44.1642 63.5075 47.9701 53.6568 47.8955C49.4776 47.8955 47.0149 48.8657 44.5523 49.8358L44.2528 49.9473C41.7374 50.8843 39.1431 51.8507 34.4777 51.8507C25.5225 51.8507 16.4925 48.5672 16.4925 41.1791ZM63.5075 33.791C63.5075 35.0597 63.5075 38.8657 53.6568 38.8657C49.4776 38.8657 47.0149 39.8358 44.5523 40.806L44.2528 40.9174C41.7374 41.8544 39.1431 42.8209 34.4777 42.8209C27.6119 42.8209 21.4925 40.8806 18.5821 37.7463C17.0896 36.1045 16.3433 34.2388 16.4925 32.1493C16.8657 26.403 24.4031 23.4925 38.8806 23.4925C46.2686 23.4925 63.5075 24.5373 63.5075 33.791Z" fill="white"/>
<rect x="9.25586" y="87" width="61.4885" height="22" rx="10" fill="#FDE68A"/>
<path fill-rule="evenodd" clip-rule="evenodd" d="M26.512 91C26.6068 91 26.6922 91.0095 26.7681 91.0285C26.8629 91.0474 26.9483 91.0854 27.0242 91.1423C27.119 91.1802 27.1949 91.2371 27.2518 91.313C27.3087 91.3699 27.3656 91.4458 27.4225 91.5407L33.6258 103.463C33.7206 103.634 33.7586 103.805 33.7396 103.976C33.7396 104.146 33.6922 104.317 33.5973 104.488C33.5594 104.564 33.512 104.64 33.455 104.715C33.3792 104.772 33.3033 104.82 33.2274 104.858C33.1515 104.896 33.0662 104.934 32.9713 104.972C32.8954 104.991 32.8101 105 32.7152 105H20.3087C20.2139 105 20.119 104.991 20.0242 104.972C19.9483 104.934 19.8724 104.896 19.7965 104.858C19.7017 104.82 19.6258 104.772 19.5689 104.715C19.512 104.64 19.455 104.564 19.3981 104.488C19.3033 104.317 19.2559 104.146 19.2559 103.976C19.2559 103.805 19.3033 103.634 19.3981 103.463L25.6014 91.5407C25.6393 91.4458 25.6962 91.3699 25.7721 91.313C25.829 91.2371 25.8954 91.1802 25.9713 91.1423C26.0472 91.0854 26.1326 91.0474 26.2274 91.0285C26.3223 91.0095 26.4171 91 26.512 91ZM21.1339 103.407H31.89L26.512 92.9065L21.1339 103.407ZM27.5079 102.211C27.4794 102.297 27.3941 102.354 27.3087 102.354C27.1 102.354 26.9008 102.354 26.7111 102.354C26.4076 102.354 26.1041 102.354 25.8006 102.354C25.6583 102.354 25.4591 102.354 25.4591 102.154V101.5C25.4591 101.386 25.5445 101.301 25.6583 101.301H27.3087C27.4225 101.301 27.5363 101.386 27.5363 101.5V102.154C27.5363 102.173 27.5269 102.192 27.5079 102.211ZM27.5079 100.163C27.4794 100.248 27.4225 100.305 27.3087 100.305C27.119 100.305 26.9198 100.305 26.7111 100.305C26.4076 100.305 26.1136 100.305 25.829 100.305C25.6583 100.305 25.4591 100.276 25.4591 100.077V96.8902C25.4591 96.7764 25.5445 96.6911 25.6868 96.6911H27.3087C27.451 96.6911 27.5363 96.7764 27.5363 96.8902V100.077C27.5363 100.115 27.5269 100.144 27.5079 100.163Z" fill="#92400E"/>
<path d="M43.9709 103H39.1604V94.4336H43.9709V95.4648H40.3616V98.0137H43.7542V99.0332H40.3616V101.963H43.9709V103ZM53.3577 98.7051C53.3577 99.3652 53.2737 99.9668 53.1057 100.51C52.9377 101.049 52.6877 101.514 52.3557 101.904C52.0276 102.291 51.6155 102.59 51.1194 102.801C50.6272 103.012 50.051 103.117 49.3909 103.117C48.719 103.117 48.1331 103.012 47.6331 102.801C47.137 102.59 46.7249 102.289 46.3967 101.898C46.0686 101.508 45.8225 101.041 45.6584 100.498C45.4983 99.9551 45.4182 99.3535 45.4182 98.6934C45.4182 97.8145 45.5627 97.0449 45.8518 96.3848C46.1409 95.7246 46.5803 95.2129 47.1702 94.8496C47.7639 94.4824 48.51 94.2988 49.4084 94.2988C50.2756 94.2988 51.0022 94.4805 51.5881 94.8438C52.1741 95.207 52.6155 95.7188 52.9124 96.3789C53.2092 97.0352 53.3577 97.8105 53.3577 98.7051ZM46.678 98.7051C46.678 99.4004 46.7737 100.002 46.9651 100.51C47.1604 101.014 47.4573 101.404 47.8557 101.682C48.2581 101.955 48.7698 102.092 49.3909 102.092C50.0198 102.092 50.5334 101.955 50.9319 101.682C51.3303 101.404 51.6233 101.014 51.8108 100.51C51.9983 100.002 52.092 99.4004 52.092 98.7051C52.092 97.6504 51.8772 96.8262 51.4475 96.2324C51.0178 95.6348 50.3381 95.3359 49.4084 95.3359C48.7834 95.3359 48.2698 95.4727 47.8674 95.7461C47.4651 96.0156 47.1663 96.4023 46.9709 96.9062C46.7756 97.4062 46.678 98.0059 46.678 98.7051ZM55.2268 103V94.4336H56.428V101.957H60.1487V103H55.2268Z" fill="#92400E"/>
</svg>
