<svg width="80" height="109" viewBox="0 0 80 109" fill="none" xmlns="http://www.w3.org/2000/svg">
<rect x="2.5" width="75" height="75" rx="37.5" fill="#4B5563"/>
<path fill-rule="evenodd" clip-rule="evenodd" d="M50.2985 33.0224C50.2985 34.4403 48.4329 35.5597 45.8954 35.5597C43.3582 35.5597 41.4925 34.4403 41.4925 33.0224C41.4925 31.6045 43.3582 30.4851 45.8954 30.4851C48.4329 30.4851 50.2985 31.5299 50.2985 33.0224ZM48.806 32.9478C48.806 32.5746 47.6866 31.903 45.8954 31.903C44.1045 31.903 42.9851 32.5746 42.9851 32.9478C42.9851 33.3209 44.1045 33.9926 45.8954 33.9926C47.6866 33.9926 48.806 33.3209 48.806 32.9478Z" fill="white"/>
<path fill-rule="evenodd" clip-rule="evenodd" d="M25.2985 37.0523H26.4179C31.0448 37.0523 33.8806 38.0224 36.1194 38.8433C36.2998 38.9335 36.4804 38.9964 36.6768 39.065L36.6784 39.0655L36.6801 39.066C36.808 39.1107 36.943 39.1578 37.0896 39.2164L37.346 39.3138C39.4438 40.1121 41.7972 41.0075 45.597 41.0075C51.6419 41.0075 57.5373 39.0672 60.224 36.2314C61.3434 35.0373 61.8657 33.6194 61.791 32.0523C61.7165 30.8582 61.2687 29.0672 57.9104 27.5746C54.1044 25.8582 48.2837 24.8881 41.1941 24.8881C24.4031 24.8881 19.4776 28.5448 18.3582 31.6045C17.6866 33.3955 18.2835 35.0373 18.9553 35.6343C20.3731 37.0523 21.8656 37.0523 25.2985 37.0523ZM19.6268 32.2015C20.2986 30.4851 23.6568 26.4552 41.0449 26.4552C47.8358 26.4552 53.5075 27.3508 57.0895 28.9926C59.8904 30.2852 60.0649 31.5779 60.1409 32.139L60.1493 32.2015C60.224 33.3955 59.8508 34.3657 59.0298 35.2612C56.6418 37.7985 51.1193 39.5896 45.5223 39.5896C41.9741 39.5896 39.8311 38.7463 37.798 37.9463L37.612 37.8731C37.4628 37.7985 37.295 37.7426 37.1272 37.6866C36.9592 37.6306 36.7912 37.5746 36.6418 37.5C34.2538 36.6045 31.2687 35.5597 26.3432 35.5597H25.2238C21.9403 35.5597 20.8956 35.5597 19.8507 34.5896C19.7015 34.4403 19.1792 33.4702 19.6268 32.2015Z" fill="white"/>
<path fill-rule="evenodd" clip-rule="evenodd" d="M65 31.903C64.5522 25.2612 56.5671 21.8284 41.1194 21.8284C18.4329 21.8284 15 29.2164 15 33.5448V42.7239C15 47.0523 18.806 49.2911 26.4179 49.2911C30.0972 49.2911 32.3006 50.0961 34.6183 50.9429L35 51.0821C37.6865 52.1269 40.5224 53.1717 45.597 53.1717C55.2985 53.1717 65 49.4403 65 41.0075V31.903ZM45.5223 51.6791C40.8569 51.6791 38.2626 50.7126 35.7472 49.7756L35.4477 49.6642C32.9851 48.694 30.5224 47.7239 26.3432 47.7239C16.4925 47.7985 16.4925 43.9925 16.4925 42.7239V37.5C18.2835 39.2911 21.5672 40.1866 26.4179 40.1866C30.0972 40.1866 32.3006 40.9916 34.6183 41.8384L35 41.9776C37.6865 43.0224 40.5224 44.0672 45.597 44.0672C52.985 44.0672 59.3283 41.9776 62.5373 38.5448C62.9104 38.1716 63.209 37.7239 63.5075 37.2761V41.0075C63.5075 48.3955 54.4775 51.6791 45.5223 51.6791ZM41.1194 23.3209C55.5969 23.3209 63.1343 26.2313 63.5075 31.9776C63.6567 34.0672 62.9104 35.9328 61.4179 37.5746C58.5075 40.709 52.3881 42.6493 45.5223 42.6493C40.8569 42.6493 38.2626 41.6828 35.7472 40.7458L35.4477 40.6343C32.9851 39.6642 30.5224 38.694 26.3432 38.694C16.4925 38.694 16.4925 34.8881 16.4925 33.6194C16.4925 24.3657 33.7314 23.3209 41.1194 23.3209Z" fill="white"/>
<rect x="9.25586" y="87" width="61.4885" height="22" rx="10" fill="#FDE68A"/>
<path fill-rule="evenodd" clip-rule="evenodd" d="M26.512 91C26.6068 91 26.6922 91.0095 26.7681 91.0285C26.8629 91.0474 26.9483 91.0854 27.0242 91.1423C27.119 91.1802 27.1949 91.2371 27.2518 91.313C27.3087 91.3699 27.3656 91.4458 27.4225 91.5407L33.6258 103.463C33.7206 103.634 33.7586 103.805 33.7396 103.976C33.7396 104.146 33.6922 104.317 33.5973 104.488C33.5594 104.564 33.512 104.64 33.455 104.715C33.3792 104.772 33.3033 104.82 33.2274 104.858C33.1515 104.896 33.0662 104.934 32.9713 104.972C32.8954 104.991 32.8101 105 32.7152 105H20.3087C20.2139 105 20.119 104.991 20.0242 104.972C19.9483 104.934 19.8724 104.896 19.7965 104.858C19.7017 104.82 19.6258 104.772 19.5689 104.715C19.512 104.64 19.455 104.564 19.3981 104.488C19.3033 104.317 19.2559 104.146 19.2559 103.976C19.2559 103.805 19.3033 103.634 19.3981 103.463L25.6014 91.5407C25.6393 91.4458 25.6962 91.3699 25.7721 91.313C25.829 91.2371 25.8954 91.1802 25.9713 91.1423C26.0472 91.0854 26.1326 91.0474 26.2274 91.0285C26.3223 91.0095 26.4171 91 26.512 91ZM21.1339 103.407H31.89L26.512 92.9065L21.1339 103.407ZM27.5079 102.211C27.4794 102.297 27.3941 102.354 27.3087 102.354C27.1 102.354 26.9008 102.354 26.7111 102.354C26.4076 102.354 26.1041 102.354 25.8006 102.354C25.6583 102.354 25.4591 102.354 25.4591 102.154V101.5C25.4591 101.386 25.5445 101.301 25.6583 101.301H27.3087C27.4225 101.301 27.5363 101.386 27.5363 101.5V102.154C27.5363 102.173 27.5269 102.192 27.5079 102.211ZM27.5079 100.163C27.4794 100.248 27.4225 100.305 27.3087 100.305C27.119 100.305 26.9198 100.305 26.7111 100.305C26.4076 100.305 26.1136 100.305 25.829 100.305C25.6583 100.305 25.4591 100.276 25.4591 100.077V96.8902C25.4591 96.7764 25.5445 96.6911 25.6868 96.6911H27.3087C27.451 96.6911 27.5363 96.7764 27.5363 96.8902V100.077C27.5363 100.115 27.5269 100.144 27.5079 100.163Z" fill="#92400E"/>
<path d="M43.9709 103H39.1604V94.4336H43.9709V95.4648H40.3616V98.0137H43.7542V99.0332H40.3616V101.963H43.9709V103ZM53.3577 98.7051C53.3577 99.3652 53.2737 99.9668 53.1057 100.51C52.9377 101.049 52.6877 101.514 52.3557 101.904C52.0276 102.291 51.6155 102.59 51.1194 102.801C50.6272 103.012 50.051 103.117 49.3909 103.117C48.719 103.117 48.1331 103.012 47.6331 102.801C47.137 102.59 46.7249 102.289 46.3967 101.898C46.0686 101.508 45.8225 101.041 45.6584 100.498C45.4983 99.9551 45.4182 99.3535 45.4182 98.6934C45.4182 97.8145 45.5627 97.0449 45.8518 96.3848C46.1409 95.7246 46.5803 95.2129 47.1702 94.8496C47.7639 94.4824 48.51 94.2988 49.4084 94.2988C50.2756 94.2988 51.0022 94.4805 51.5881 94.8438C52.1741 95.207 52.6155 95.7188 52.9124 96.3789C53.2092 97.0352 53.3577 97.8105 53.3577 98.7051ZM46.678 98.7051C46.678 99.4004 46.7737 100.002 46.9651 100.51C47.1604 101.014 47.4573 101.404 47.8557 101.682C48.2581 101.955 48.7698 102.092 49.3909 102.092C50.0198 102.092 50.5334 101.955 50.9319 101.682C51.3303 101.404 51.6233 101.014 51.8108 100.51C51.9983 100.002 52.092 99.4004 52.092 98.7051C52.092 97.6504 51.8772 96.8262 51.4475 96.2324C51.0178 95.6348 50.3381 95.3359 49.4084 95.3359C48.7834 95.3359 48.2698 95.4727 47.8674 95.7461C47.4651 96.0156 47.1663 96.4023 46.9709 96.9062C46.7756 97.4062 46.678 98.0059 46.678 98.7051ZM55.2268 103V94.4336H56.428V101.957H60.1487V103H55.2268Z" fill="#92400E"/>
</svg>
