<svg version="1.2" xmlns="http://www.w3.org/2000/svg" viewBox="0 0 200 200" width="200" height="200">
	<title>fiorentina-svg</title>
	<style>
		.s0 { fill: #000000 } 
		.s1 { fill: #ec7a08 } 
	</style>
	<path id="Layer" fill-rule="evenodd" class="s0" d="m103 58c41.4 0 62.8 9.2 64 27v24.4c0 13.2-8.9 22.1-21.5 27.2l-1.8-3.6c11.3-4.5 19.3-12.2 19.3-23.6v-10c-0.8 1.2-1.6 2.4-2.6 3.4-5.6 6-14.7 10.4-25.8 12.8l-1.8-3.6c10.6-2.1 19.5-6.3 24.6-11.8 4-4.4 6-9.4 5.6-15-1-15.4-21.2-23.2-60-23.2-19.8 0-66 2.8-66 27.6 0 3.4 0 13.6 26.4 13.6 11.2 0 17.8 2.6 24.4 5.2l0.8 0.3c6.7 2.5 13.7 5.1 26.2 5.1q0.9 0 1.9 0l-2 3.8c-13.4 0-21-2.8-28.1-5.6l-1-0.4c-6.2-2.2-12.1-4.4-22-4.4-13 0-21.8-2.4-26.6-7.2v14c0 3.4 0 13.6 26.4 13.4 11.2 0 17.8 2.6 24.4 5.2l0.8 0.3c4.6 1.7 9.3 3.5 15.8 4.4l-1.9 3.8c-6.5-1.1-11.3-2.9-15.9-4.7l-1-0.4c-6.2-2.2-12.1-4.4-22-4.4-20.4 0-30.6-6-30.6-17.6v-24.6c0-11.6 9.2-31.4 70-31.4zm26.3 47.5q-0.4-0.7-0.7-1.1-0.1 0-0.2-0.1c9.8-1.9 18.2-5.6 22.6-10.3 2.2-2.4 3.2-5 3-8.2v-0.2c-0.2-1.5-0.7-4.9-8.2-8.4-9.6-4.4-24.8-6.8-43-6.8-46.6 0-55.6 10.8-57.4 15.4-1.2 3.4 0.2 6 0.6 6.4 2.8 2.6 5.6 2.6 14.4 2.6h3c13.2 0 21.2 2.8 27.6 5.2 0.4 0.2 0.9 0.3 1.3 0.5 0.5 0.2 0.9 0.3 1.3 0.5l0.5 0.2c5.4 2.1 11.2 4.4 20.7 4.4q3.2 0 6.3-0.3-0.1 0.1-0.1 0.2l-2 3.8q-2 0.1-4 0.1c-10.2 0-16.5-2.4-22.1-4.5l-0.7-0.3q-0.6-0.2-1.1-0.4c-0.5-0.2-1-0.4-1.5-0.6-6-2.2-13.6-4.8-26-4.8h-3c-9.2 0-13.2 0-17-3.8-1.8-1.6-3.4-6-1.6-10.8 3-8.2 16.2-18 61.2-18 19 0 34.6 2.6 44.8 7.2 9 4 10.2 8.8 10.4 12 0.2 4.2-1.2 8-4.2 11.2-4.8 5.1-13.5 9.1-23.6 11.2zm-1.8-17.5c0 3.8-5 6.8-11.8 6.8-6.8 0-11.8-3-11.8-6.8 0-3.8 5-6.8 11.8-6.8 6.8 0 11.8 2.8 11.8 6.8zm-4-0.2c0-1-3-2.8-7.8-2.8-4.8 0-7.8 1.8-7.8 2.8 0 1 3 2.8 7.8 2.8 4.8 0 7.8-1.8 7.8-2.8z"/>
	<path id="Layer" fill-rule="evenodd" class="s1" d="m125.2 103q0.6 0 1.1 0.1 0.7 0.2 1.2 0.6 0.7 0.2 1.1 0.7 0.3 0.4 0.7 1.1l28.4 54.5q0.6 1.1 0.5 2.3 0 1.2-0.6 2.4-0.3 0.5-0.7 1-0.5 0.4-1 0.6-0.6 0.3-1.2 0.6-0.5 0.1-1.2 0.1h-56.7q-0.6 0-1.3-0.1-0.5-0.3-1-0.6-0.7-0.2-1.1-0.6-0.4-0.5-0.7-1-0.7-1.2-0.7-2.4 0-1.2 0.7-2.3l28.3-54.5q0.3-0.7 0.8-1.1 0.4-0.5 0.9-0.7 0.5-0.4 1.2-0.6 0.6-0.1 1.3-0.1zm-24.6 56.7h49.2l-24.6-48zm29.1-5.4c-0.1 0.3-0.5 0.6-0.9 0.6q-1.4 0-2.7 0-2.1 0-4.2 0c-0.6 0-1.6 0-1.6-0.9v-3c0-0.5 0.4-0.9 1-0.9h7.5c0.5 0 1 0.4 1 0.9v3q0 0.1-0.1 0.3zm0-9.4c-0.1 0.4-0.4 0.6-0.9 0.6q-1.3 0-2.7 0-2.1 0-4.1 0c-0.7 0-1.7-0.1-1.7-1v-14.6c0-0.5 0.4-0.9 1.1-0.9h7.4c0.6 0 1 0.4 1 0.9v14.6q0 0.3-0.1 0.4z"/>
</svg>