<?xml version="1.0" encoding="utf-8"?>
<!-- Generator: Adobe Illustrator 22.0.1, SVG Export Plug-In . SVG Version: 6.00 Build 0)  -->
<svg version="1.1" id="Livello_1" xmlns="http://www.w3.org/2000/svg" xmlns:xlink="http://www.w3.org/1999/xlink" x="0px" y="0px"
	 viewBox="0 0 200 200" style="enable-background:new 0 0 200 200;" xml:space="preserve">
<style type="text/css">
	.st0{clip-path:url(#SVGID_2_);fill:#fff;}
</style>
<g>
	<defs>
		<rect id="SVGID_1_" x="33" y="58" width="134" height="84"/>
	</defs>
	<clipPath id="SVGID_2_">
		<use xlink:href="#SVGID_1_"  style="overflow:visible;"/>
	</clipPath>
	<path class="st0" d="M114.8,138c-13,0-20-2.8-27-5.4c-6.6-2.6-13.2-5.2-24.4-5.2C37,127.6,37,117.4,37,114v-14
		c4.8,4.8,13.6,7.2,26.6,7.2c10.4,0,16.4,2.4,23,4.8c7.2,2.8,14.8,5.6,28.4,5.6c19.8,0,36.8-5.6,45.4-14.8c1-1,1.8-2.2,2.6-3.4v10
		C163,129.2,138.8,138,114.8,138 M103,62c38.8,0,59,7.8,60,23.2c0.4,5.6-1.6,10.6-5.6,15c-7.8,8.4-24.2,13.6-42.6,13.6
		c-13,0-20-2.8-27-5.4c-6.6-2.6-13.2-5.2-24.4-5.2C37,103.2,37,93,37,89.6C37,64.8,83.2,62,103,62 M167,86.6V85
		c-1.2-17.8-22.6-27-64-27c-60.8,0-70,19.8-70,31.4V114c0,11.6,10.2,17.6,30.6,17.6c10.4,0,16.4,2.4,23,4.8
		c7.2,2.8,14.8,5.6,28.4,5.6c26,0,52-10,52-32.6V86.6C167,86.8,167,86.6,167,86.6"/>
	<path class="st0" d="M45.4,85.8c1.8-4.6,10.8-15.4,57.4-15.4c18.2,0,33.4,2.4,43,6.8c7.8,3.6,8,7.2,8.2,8.6c0.2,3.2-0.8,5.8-3,8.2
		c-6.4,6.8-21.2,11.6-36.2,11.6c-9.8,0-15.6-2.4-21.2-4.6c-0.8-0.4-1.8-0.6-2.6-1c-6.4-2.4-14.4-5.2-27.6-5.2h-3
		c-8.8,0-11.6,0-14.4-2.6C45.6,91.8,44.2,89.2,45.4,85.8 M60.6,98.8h3c12.4,0,20,2.6,26,4.8c0.8,0.4,1.6,0.6,2.6,1
		c5.8,2.2,12.2,4.8,22.8,4.8c16.2,0,32-5.2,39.2-12.8c3-3.2,4.4-7,4.2-11.2c-0.2-3.2-1.4-8-10.4-12c-10.2-4.6-25.8-7.2-44.8-7.2
		c-45,0-58.2,9.8-61.2,18c-1.8,4.8-0.2,9.2,1.6,10.8C47.4,98.8,51.4,98.8,60.6,98.8"/>
	<path class="st0" d="M115.8,85c4.8,0,7.8,1.8,7.8,2.8s-3,2.8-7.8,2.8c-4.8,0-7.8-1.8-7.8-2.8S111,85,115.8,85 M115.8,94.8
		c6.8,0,11.8-3,11.8-6.8c0-4-5-6.8-11.8-6.8c-6.8,0-11.8,3-11.8,6.8S109,94.8,115.8,94.8"/>
</g>
</svg>
