<svg version="1.2" xmlns="http://www.w3.org/2000/svg" viewBox="0 0 200 200" width="200" height="200">
	<title>lasagna-svg</title>
	<style>
		.s0 { fill: #000000 } 
		.s1 { fill: #ec7a08 } 
	</style>
	<path id="Layer" fill-rule="evenodd" class="s0" d="m141.7 81.3l-15.8 7.1 15.8 7.2c3 1.4 3.3 3.5 3.3 4.4 0 0.9-0.3 3-3.3 4.4l-10.5 4.7-1.9-3.6q-0.4-0.7-0.7-1.1-0.1-0.1-0.2-0.2l9.4-4.2-18.7-8.5-13.9 6.3c-1.5 0.7-3.3 1-5.2 1-1.9 0-3.7-0.3-5.2-1l-13.9-6.3-18.7 8.5 34.9 15.8c1.5 0.7 4.2 0.7 5.8 0l16.7-7.6-4.2 8.1-10.2 4.6c-1.5 0.7-3.3 1-5.2 1-1.9 0-3.7-0.3-5.2-1l-13.9-6.3-18.7 8.5 34.9 15.8c1.4 0.6 4.4 0.6 5.8 0l1-0.5-3.4 6.6q-0.3 0-0.5 0c-1.9 0-3.8-0.4-5.2-1l-36.5-16.5c-3-1.4-3.3-3.5-3.3-4.4 0-0.9 0.3-3 3.3-4.4l15.8-7.2-15.8-7.1c-3-1.4-3.3-3.5-3.3-4.4 0-0.9 0.3-3 3.3-4.4l15.8-7.2-15.8-7.1c-3-1.4-3.3-3.5-3.3-4.4 0-0.9 0.3-3 3.3-4.4l36.5-16.5c2.9-1.3 7.5-1.3 10.4 0l36.5 16.5c3 1.4 3.3 3.5 3.3 4.4 0 0.9-0.3 3-3.3 4.4zm-38.8 11.4l34.9-15.8-34.9-15.8c-1.4-0.6-4.4-0.6-5.8 0l-34.9 15.8 34.9 15.8c1.5 0.7 4.2 0.7 5.8 0zm31.6 22.7l7.2 3.3c3 1.4 3.3 3.5 3.3 4.4 0 0.9-0.3 3-3.3 4.4l-0.7 0.3z"/>
	<path id="Layer" fill-rule="evenodd" class="s1" d="m125.2 103q0.6 0 1.1 0.1 0.7 0.2 1.2 0.6 0.7 0.2 1.1 0.7 0.3 0.4 0.7 1.1l28.4 54.5q0.6 1.1 0.5 2.3 0 1.2-0.6 2.4-0.3 0.5-0.7 1-0.5 0.4-1 0.6-0.6 0.3-1.2 0.6-0.5 0.1-1.2 0.1h-56.7q-0.6 0-1.3-0.1-0.5-0.3-1-0.6-0.7-0.2-1.1-0.6-0.4-0.5-0.7-1-0.7-1.2-0.7-2.4 0-1.2 0.7-2.3l28.3-54.5q0.3-0.7 0.8-1.1 0.4-0.5 0.9-0.7 0.5-0.4 1.2-0.6 0.6-0.1 1.3-0.1zm-24.6 56.7h49.2l-24.6-48zm29.1-5.4c-0.1 0.3-0.5 0.6-0.9 0.6q-1.4 0-2.7 0-2.1 0-4.2 0c-0.6 0-1.6 0-1.6-0.9v-3c0-0.5 0.4-0.9 1-0.9h7.5c0.5 0 1 0.4 1 0.9v3q0 0.1-0.1 0.3zm0-9.4c-0.1 0.4-0.4 0.6-0.9 0.6q-1.3 0-2.7 0-2.1 0-4.1 0c-0.7 0-1.7-0.1-1.7-1v-14.6c0-0.5 0.4-0.9 1.1-0.9h7.4c0.6 0 1 0.4 1 0.9v14.6q0 0.3-0.1 0.4z"/>
</svg>