<?xml version="1.0" encoding="utf-8"?>
<!-- Generator: Adobe Illustrator 22.0.1, SVG Export Plug-In . SVG Version: 6.00 Build 0)  -->
<svg version="1.1" id="Livello_1" xmlns="http://www.w3.org/2000/svg" xmlns:xlink="http://www.w3.org/1999/xlink" x="0px" y="0px"
	 viewBox="0 0 200 200" style="enable-background:new 0 0 200 200;" xml:space="preserve">
<style type="text/css">
	.st0{clip-path:url(#SVGID_2_);fill:#fff;}
</style>
<g>
	<defs>
		<rect id="SVGID_1_" x="55" y="55" width="90" height="90"/>
	</defs>
	<clipPath id="SVGID_2_">
		<use xlink:href="#SVGID_1_"  style="overflow:visible;"/>
	</clipPath>
	<path class="st0" d="M62.2,76.9l34.9,15.8c1.5,0.7,4.2,0.7,5.8,0l34.9-15.8l-34.9-15.8c-1.4-0.6-4.4-0.6-5.8,0L62.2,76.9z
		 M100,98.8c-1.9,0-3.7-0.3-5.2-1L58.3,81.3c-3-1.4-3.3-3.5-3.3-4.4c0-0.9,0.3-3,3.3-4.4L94.8,56c2.9-1.3,7.5-1.3,10.4,0l36.5,16.5
		c3,1.4,3.3,3.5,3.3,4.4c0,0.9-0.3,3-3.3,4.4l-36.5,16.5C103.7,98.5,101.9,98.8,100,98.8"/>
	<path class="st0" d="M100,145c-1.9,0-3.8-0.4-5.2-1l-36.5-16.5c-3-1.4-3.3-3.5-3.3-4.4c0-0.9,0.3-3,3.3-4.4l21.4-9.7
		c1.4-0.6,3.1,0,3.7,1.4c0.6,1.4,0,3.1-1.4,3.7l-19.8,9l34.9,15.8c1.4,0.6,4.4,0.6,5.8,0l34.9-15.8l-19.8-9c-1.4-0.6-2-2.3-1.4-3.7
		c0.6-1.4,2.3-2,3.7-1.4l21.4,9.7c3,1.4,3.3,3.5,3.3,4.4c0,0.9-0.3,3-3.3,4.4L105.2,144C103.8,144.6,101.9,145,100,145"/>
	<path class="st0" d="M100,121.9c-1.9,0-3.7-0.3-5.2-1l-36.5-16.5c-3-1.4-3.3-3.5-3.3-4.4c0-0.9,0.3-3,3.3-4.4l21.4-9.7
		c1.4-0.6,3.1,0,3.7,1.4c0.6,1.4,0,3.1-1.4,3.7l-19.8,9l34.9,15.8c1.5,0.7,4.2,0.7,5.8,0l34.9-15.8l-19.8-9c-1.4-0.6-2-2.3-1.4-3.7
		c0.6-1.4,2.3-2,3.7-1.4l21.4,9.7c3,1.4,3.3,3.5,3.3,4.4c0,0.9-0.3,3-3.3,4.4l-36.5,16.5C103.7,121.6,101.9,121.9,100,121.9"/>
</g>
</svg>
