<svg width="80" height="109" viewBox="0 0 80 109" fill="none" xmlns="http://www.w3.org/2000/svg">
<rect x="2.5" width="75" height="75" rx="37.5" fill="#4B5563"/>
<path fill-rule="evenodd" clip-rule="evenodd" d="M50.3698 33.3699L56.6897 30.5129C57.8901 29.9528 58.01 29.1125 58.01 28.7524C58.01 28.3923 57.8901 27.5521 56.6897 26.9919L42.0857 20.3901C40.9252 19.87 39.0848 19.87 37.9244 20.3901L23.3203 26.9919C22.12 27.5521 22 28.3923 22 28.7524C22 29.1125 22.12 29.9528 23.3203 30.5129L29.6402 33.3699L23.3203 36.2345C22.12 36.7947 22 37.6349 22 37.995C22 38.3551 22.12 39.1953 23.3203 39.7555L29.6402 42.6124L23.3203 45.4771C22.12 46.0372 22 46.8774 22 47.2376C22 47.5977 22.12 48.4379 23.3203 48.9981L37.9244 55.5999C38.4847 55.8399 39.2448 56 40.005 56C40.7652 56 41.5254 55.8399 42.0857 55.5999L56.6897 48.9981C57.8901 48.4379 58.01 47.5977 58.01 47.2376C58.01 46.8774 57.8901 46.0372 56.6897 45.4771L50.3698 42.6124L56.6897 39.7555C57.8901 39.1953 58.01 38.3551 58.01 37.995C58.01 37.6349 57.8901 36.7947 56.6897 36.2345L50.3698 33.3699ZM24.8809 28.7524L38.8447 35.0742C39.4449 35.3543 40.5251 35.3543 41.1653 35.0742L55.1291 28.7524L41.1653 22.4306C40.6052 22.1906 39.4048 22.1906 38.8447 22.4306L24.8809 28.7524ZM40.005 37.5149C39.2448 37.5149 38.5245 37.3948 37.9244 37.1148L32.3556 34.5974L24.8809 37.995L38.8447 44.3168C39.4449 44.5968 40.5251 44.5968 41.1653 44.3168L55.1291 37.995L47.6544 34.5974L42.0857 37.1148C41.4855 37.3948 40.7652 37.5149 40.005 37.5149ZM47.6544 43.8399L42.0857 46.3573C41.4855 46.6374 40.7652 46.7574 40.005 46.7574C39.2448 46.7574 38.5245 46.6374 37.9244 46.3573L32.3556 43.8399L24.8809 47.2376L38.8447 53.5593C39.4048 53.7994 40.6052 53.7994 41.1653 53.5593L55.1291 47.2376L47.6544 43.8399Z" fill="white"/>
<rect x="9.25586" y="87" width="61.4885" height="22" rx="10" fill="#FDE68A"/>
<path fill-rule="evenodd" clip-rule="evenodd" d="M26.512 91C26.6068 91 26.6922 91.0095 26.7681 91.0285C26.8629 91.0474 26.9483 91.0854 27.0242 91.1423C27.119 91.1802 27.1949 91.2371 27.2518 91.313C27.3087 91.3699 27.3656 91.4458 27.4225 91.5407L33.6258 103.463C33.7206 103.634 33.7586 103.805 33.7396 103.976C33.7396 104.146 33.6922 104.317 33.5973 104.488C33.5594 104.564 33.512 104.64 33.455 104.715C33.3792 104.772 33.3033 104.82 33.2274 104.858C33.1515 104.896 33.0662 104.934 32.9713 104.972C32.8954 104.991 32.8101 105 32.7152 105H20.3087C20.2139 105 20.119 104.991 20.0242 104.972C19.9483 104.934 19.8724 104.896 19.7965 104.858C19.7017 104.82 19.6258 104.772 19.5689 104.715C19.512 104.64 19.455 104.564 19.3981 104.488C19.3033 104.317 19.2559 104.146 19.2559 103.976C19.2559 103.805 19.3033 103.634 19.3981 103.463L25.6014 91.5407C25.6393 91.4458 25.6962 91.3699 25.7721 91.313C25.829 91.2371 25.8954 91.1802 25.9713 91.1423C26.0472 91.0854 26.1326 91.0474 26.2274 91.0285C26.3223 91.0095 26.4171 91 26.512 91ZM21.1339 103.407H31.89L26.512 92.9065L21.1339 103.407ZM27.5079 102.211C27.4794 102.297 27.3941 102.354 27.3087 102.354C27.1 102.354 26.9008 102.354 26.7111 102.354C26.4076 102.354 26.1041 102.354 25.8006 102.354C25.6583 102.354 25.4591 102.354 25.4591 102.154V101.5C25.4591 101.386 25.5445 101.301 25.6583 101.301H27.3087C27.4225 101.301 27.5363 101.386 27.5363 101.5V102.154C27.5363 102.173 27.5269 102.192 27.5079 102.211ZM27.5079 100.163C27.4794 100.248 27.4225 100.305 27.3087 100.305C27.119 100.305 26.9198 100.305 26.7111 100.305C26.4076 100.305 26.1136 100.305 25.829 100.305C25.6583 100.305 25.4591 100.276 25.4591 100.077V96.8902C25.4591 96.7764 25.5445 96.6911 25.6868 96.6911H27.3087C27.451 96.6911 27.5363 96.7764 27.5363 96.8902V100.077C27.5363 100.115 27.5269 100.144 27.5079 100.163Z" fill="#92400E"/>
<path d="M43.9709 103H39.1604V94.4336H43.9709V95.4648H40.3616V98.0137H43.7542V99.0332H40.3616V101.963H43.9709V103ZM53.3577 98.7051C53.3577 99.3652 53.2737 99.9668 53.1057 100.51C52.9377 101.049 52.6877 101.514 52.3557 101.904C52.0276 102.291 51.6155 102.59 51.1194 102.801C50.6272 103.012 50.051 103.117 49.3909 103.117C48.719 103.117 48.1331 103.012 47.6331 102.801C47.137 102.59 46.7249 102.289 46.3967 101.898C46.0686 101.508 45.8225 101.041 45.6584 100.498C45.4983 99.9551 45.4182 99.3535 45.4182 98.6934C45.4182 97.8145 45.5627 97.0449 45.8518 96.3848C46.1409 95.7246 46.5803 95.2129 47.1702 94.8496C47.7639 94.4824 48.51 94.2988 49.4084 94.2988C50.2756 94.2988 51.0022 94.4805 51.5881 94.8438C52.1741 95.207 52.6155 95.7188 52.9124 96.3789C53.2092 97.0352 53.3577 97.8105 53.3577 98.7051ZM46.678 98.7051C46.678 99.4004 46.7737 100.002 46.9651 100.51C47.1604 101.014 47.4573 101.404 47.8557 101.682C48.2581 101.955 48.7698 102.092 49.3909 102.092C50.0198 102.092 50.5334 101.955 50.9319 101.682C51.3303 101.404 51.6233 101.014 51.8108 100.51C51.9983 100.002 52.092 99.4004 52.092 98.7051C52.092 97.6504 51.8772 96.8262 51.4475 96.2324C51.0178 95.6348 50.3381 95.3359 49.4084 95.3359C48.7834 95.3359 48.2698 95.4727 47.8674 95.7461C47.4651 96.0156 47.1663 96.4023 46.9709 96.9062C46.7756 97.4062 46.678 98.0059 46.678 98.7051ZM55.2268 103V94.4336H56.428V101.957H60.1487V103H55.2268Z" fill="#92400E"/>
</svg>
