<svg xmlns="http://www.w3.org/2000/svg" viewBox="0 0 170.13 171.53"><defs><style>.cls-1,.cls-2{fill:#13a538;}.cls-1{fill-rule:evenodd;}.cls-3{fill:#fff;}.cls-4{fill:#1d9ed9;}</style></defs><g id="Livello_2" data-name="Livello 2"><g id="Livello_1-2" data-name="Livello 1"><path class="cls-1" d="M140.48,167.85c-.39-.44-.8-.8-1.22-1.23-4.25-4.25-9.83-9.8-15.18-15.13l-13-13-.7-.7c-2.12-2.12-4.76-4.76-4.76-9.83,0-2.28,0-4.93.06-7.48,0-2.35,0-4.62,0-6.44a10.07,10.07,0,0,1,.7-3.84c-1.9.89-2.89,2.76-2.89,5.43,0,3.8-.1,9.55-.1,13.93,0,4,2,6,4,8.06,7.07,7.07,21.78,21.7,30.08,30,3.36,3.36,5.47,4.26,7.34,3.73A20.92,20.92,0,0,1,140.48,167.85Z"/><path class="cls-1" d="M166.41,142.17,136.23,112c-2-2-4-4-8.06-4H126a26,26,0,0,1,.82,3,16.27,16.27,0,0,1-.67,9.27,4.41,4.41,0,0,1,.08.72,5,5,0,1,1-6.12-4.88,11,11,0,0,0-.17-4,18,18,0,0,0-1.43-4.09l-4.4,0c-3.82,0-5.84,2.2-5.84,6s-.11,9.54-.11,13.92c0,4,2,6.06,4,8.06,7.07,7.07,21.79,21.71,30.09,30,6,6.05,8,4.12,11.92.23l12.16-12.17C170.33,150.11,172.34,148.1,166.41,142.17Z"/><path class="cls-1" d="M117.25,97.91c-5-5-11-7.7-16.24-7.88l-1.2,3,.67,0a14.38,14.38,0,0,1,3,.33,26.06,26.06,0,0,1,18.41,18.4c.8,3.81.12,7-1.92,9.06a7.05,7.05,0,0,1-1.86,1.32,5,5,0,0,0,2,2.3,10.44,10.44,0,0,0,2-1.5C127.63,117.31,125.47,106.12,117.25,97.91Z"/><path class="cls-2" d="M104.52,120.06a27.16,27.16,0,0,1-5.28-4.14,24,24,0,0,1-6.74-11.66,11.66,11.66,0,0,1,.26-6.44L90.85,95a13.38,13.38,0,0,0-1.28,9.92A27.09,27.09,0,0,0,97.11,118a29.34,29.34,0,0,0,7.41,5.43Z"/><path class="cls-3" d="M133.36,133.82a4.08,4.08,0,0,1-2.46-1.35l-1.58-1.58-2.73,2.73L125,132.05l7.6-7.6,3.26,3.26a3.71,3.71,0,0,1,1.21,2.39,3.26,3.26,0,0,1-1.15,2.49A3.32,3.32,0,0,1,133.36,133.82Zm1.53-3.95a1.83,1.83,0,0,0-.59-1.1l-1.43-1.43-2.24,2.24,1.43,1.43a1.69,1.69,0,0,0,1.12.57,1.57,1.57,0,0,0,1.17-.56A1.51,1.51,0,0,0,134.89,129.87Z"/><path class="cls-3" d="M143.89,138.42l-4-4L138.25,136l3.69,3.69L140.63,141l-3.7-3.69-2,1.95,4.21,4.21-1.37,1.36-5.76-5.75,7.6-7.6,5.57,5.57Z"/><path class="cls-3" d="M151.33,143.56a2.63,2.63,0,0,1,.18,1.24,3.19,3.19,0,0,1-.26,1,3,3,0,0,1-.66.94,3.13,3.13,0,0,1-1.33.79,2.14,2.14,0,0,1-1.65-.16,2,2,0,0,1,.15,1.35,3.63,3.63,0,0,1-1,1.41l-.51.51a4.59,4.59,0,0,0-.66.74.89.89,0,0,0-.15.73l-.18.19-1.76-1.75a5.77,5.77,0,0,1,.89-1.23l.7-.72a2,2,0,0,0,.72-1.22,1.82,1.82,0,0,0-.66-1.15l-1.55-1.55-3,3-1.55-1.55,7.6-7.6,3.64,3.64A4.53,4.53,0,0,1,151.33,143.56Zm-4.41-2.16-2,2,1.71,1.71a2.63,2.63,0,0,0,.89.64,1.22,1.22,0,0,0,1.31-.4,1.37,1.37,0,0,0,.49-1.37,2.43,2.43,0,0,0-.6-.87Z"/><path class="cls-3" d="M150.17,152.51a2.21,2.21,0,0,0-.49,1.08,2.39,2.39,0,0,0,.89,1.82,4,4,0,0,0,1.05.8,1.24,1.24,0,0,0,1.56-.2.9.9,0,0,0,.25-.91,5.17,5.17,0,0,0-.7-1.42l-.64-1a7.2,7.2,0,0,1-1.08-2.25,2.63,2.63,0,0,1,.87-2.41,3.1,3.1,0,0,1,2.45-.94,4.52,4.52,0,0,1,2.88,1.53,4.79,4.79,0,0,1,1.44,2.71,3.2,3.2,0,0,1-1,2.75l-1.52-1.53a1.53,1.53,0,0,0,.36-1.59,2.93,2.93,0,0,0-.76-1.13,2.56,2.56,0,0,0-1.25-.76,1.1,1.1,0,0,0-1.06.32.88.88,0,0,0-.24,1,6.75,6.75,0,0,0,.69,1.33l1,1.65a4.7,4.7,0,0,1,.76,1.86,2.6,2.6,0,0,1-.87,2.23,3.06,3.06,0,0,1-2.53.93,4.83,4.83,0,0,1-3-1.59,5.24,5.24,0,0,1-1.68-3,3.18,3.18,0,0,1,1-2.72Z"/><path class="cls-4" d="M0,61.44a61.44,61.44,0,1,1,61.44,61.43A61.44,61.44,0,0,1,0,61.44Z"/><path class="cls-3" d="M75.38,36.68a20.68,20.68,0,0,1,12.27,3.86C91,43,92.71,46.39,93,51H84.75a7.46,7.46,0,0,0-4.2-6.08,13,13,0,0,0-5.17-1.17Z"/><path class="cls-3" d="M46.67,44.56c-3.67,0-6.4,1.2-8.33,3.67a11.18,11.18,0,0,0-2.27,7.14V81.75H27.66V55.1c0-5.62,1.84-10.17,5.47-13.54s8-5,13.54-5,10.06,1.66,13.67,5.07,5.34,7.95,5.34,13.47v9.18H57.27V55.37A11.17,11.17,0,0,0,55,48.23C53.08,45.76,50.35,44.56,46.67,44.56Z"/><path class="cls-3" d="M89.75,80.8C86.5,83.57,81.82,85,75.83,85c-6.15,0-10.08-1.39-13.55-4.13A13.36,13.36,0,0,1,57.13,70.3h8.28A9.73,9.73,0,0,0,67.29,75c1.8,2.13,3.9,3.21,8.14,3.21a19,19,0,0,0,6.12-.82c3.15-1.09,4.75-3.19,4.75-6.22a4.78,4.78,0,0,0-2.43-4.28A23.42,23.42,0,0,0,77,64.53l-1.61-.36h0V56.09l7.14,1.68a21,21,0,0,1,8,3.35c2.71,2.15,4,5.17,4,9.27A13.19,13.19,0,0,1,89.75,80.8Z"/></g></g></svg>