<svg width="81" height="109" viewBox="0 0 81 109" fill="none" xmlns="http://www.w3.org/2000/svg">
<rect x="3" width="75" height="75" rx="37.5" fill="#0891B2"/>
<g clip-path="url(#clip0_60_1452)">
<path d="M40.5 53.4964L24.5 37.4964L40.5 21.5L56.5 37.4964L40.5 53.4964ZM31.235 37.4608L40.5 46.7045L49.7436 37.4608L40.5 28.1958L31.235 37.4608Z" fill="white"/>
</g>
<rect y="87" width="81" height="22" rx="10" fill="#A7F3D0"/>
<path d="M13.5703 94.4336C14.6758 94.4336 15.4824 94.6543 15.9902 95.0957C16.502 95.5371 16.7578 96.1641 16.7578 96.9766C16.7578 97.3438 16.6992 97.6934 16.582 98.0254C16.4648 98.3535 16.2734 98.6445 16.0078 98.8984C15.7461 99.1484 15.4004 99.3477 14.9707 99.4961C14.541 99.6406 14.0137 99.7129 13.3887 99.7129H12.4102V103H11.209V94.4336H13.5703ZM13.4766 95.4414H12.4102V98.6992H13.2598C13.7559 98.6992 14.1719 98.6445 14.5078 98.5352C14.8438 98.4219 15.0977 98.2422 15.2695 97.9961C15.4414 97.75 15.5273 97.4258 15.5273 97.0234C15.5273 96.4922 15.3613 96.0957 15.0293 95.834C14.6973 95.5723 14.1797 95.4414 13.4766 95.4414ZM23.3203 103H18.5098V94.4336H23.3203V95.4648H19.7109V98.0137H23.1035V99.0332H19.7109V101.963H23.3203V103ZM27.5508 94.4336C28.2734 94.4336 28.8691 94.5234 29.3379 94.7031C29.8105 94.8789 30.1621 95.1484 30.3926 95.5117C30.623 95.8711 30.7383 96.3281 30.7383 96.8828C30.7383 97.3203 30.6582 97.6895 30.498 97.9902C30.3379 98.291 30.127 98.5371 29.8652 98.7285C29.6074 98.9199 29.3301 99.0703 29.0332 99.1797L31.4297 103H30.0527L27.9668 99.4961H26.3906V103H25.1895V94.4336H27.5508ZM27.4746 95.4531H26.3906V98.4941H27.5566C28.2324 98.4941 28.7266 98.3633 29.0391 98.1016C29.3516 97.8359 29.5078 97.4453 29.5078 96.9297C29.5078 96.3945 29.3418 96.0156 29.0098 95.793C28.6777 95.5664 28.166 95.4531 27.4746 95.4531ZM37.6172 100.697C37.6172 101.205 37.4902 101.641 37.2363 102.004C36.9863 102.363 36.6328 102.639 36.1758 102.83C35.7188 103.021 35.1758 103.117 34.5469 103.117C34.2305 103.117 33.9277 103.1 33.6387 103.064C33.3535 103.033 33.0879 102.986 32.8418 102.924C32.5957 102.861 32.373 102.783 32.1738 102.689V101.553C32.498 101.686 32.873 101.811 33.2988 101.928C33.7246 102.041 34.1641 102.098 34.6172 102.098C35.0117 102.098 35.3418 102.045 35.6074 101.939C35.877 101.83 36.0801 101.678 36.2168 101.482C36.3535 101.287 36.4219 101.053 36.4219 100.779C36.4219 100.506 36.3555 100.277 36.2227 100.094C36.0898 99.9062 35.8789 99.7344 35.5898 99.5781C35.3047 99.4219 34.9297 99.2559 34.4648 99.0801C34.1406 98.9629 33.8457 98.8301 33.5801 98.6816C33.3145 98.5293 33.084 98.3555 32.8887 98.1602C32.6973 97.9648 32.5488 97.7363 32.4434 97.4746C32.3379 97.209 32.2852 96.9043 32.2852 96.5605C32.2852 96.0879 32.4004 95.6836 32.6309 95.3477C32.8652 95.0117 33.1914 94.7559 33.6094 94.5801C34.0273 94.4004 34.5117 94.3105 35.0625 94.3105C35.5156 94.3105 35.9375 94.3555 36.3281 94.4453C36.7227 94.5352 37.0977 94.6582 37.4531 94.8145L37.0723 95.8105C36.7402 95.6738 36.4062 95.5625 36.0703 95.4766C35.7344 95.3906 35.3867 95.3477 35.0273 95.3477C34.6953 95.3477 34.4141 95.3965 34.1836 95.4941C33.957 95.5918 33.7832 95.7305 33.6621 95.9102C33.5449 96.0898 33.4863 96.3027 33.4863 96.5488C33.4863 96.8262 33.5488 97.0566 33.6738 97.2402C33.7988 97.4238 33.9961 97.5898 34.2656 97.7383C34.5352 97.8867 34.8867 98.0449 35.3203 98.2129C35.8086 98.4004 36.2227 98.5996 36.5625 98.8105C36.9062 99.0215 37.168 99.2754 37.3477 99.5723C37.5273 99.8691 37.6172 100.244 37.6172 100.697ZM46.8281 98.7051C46.8281 99.3652 46.7441 99.9668 46.5762 100.51C46.4082 101.049 46.1582 101.514 45.8262 101.904C45.498 102.291 45.0859 102.59 44.5898 102.801C44.0977 103.012 43.5215 103.117 42.8613 103.117C42.1895 103.117 41.6035 103.012 41.1035 102.801C40.6074 102.59 40.1953 102.289 39.8672 101.898C39.5391 101.508 39.293 101.041 39.1289 100.498C38.9688 99.9551 38.8887 99.3535 38.8887 98.6934C38.8887 97.8145 39.0332 97.0449 39.3223 96.3848C39.6113 95.7246 40.0508 95.2129 40.6406 94.8496C41.2344 94.4824 41.9805 94.2988 42.8789 94.2988C43.7461 94.2988 44.4727 94.4805 45.0586 94.8438C45.6445 95.207 46.0859 95.7188 46.3828 96.3789C46.6797 97.0352 46.8281 97.8105 46.8281 98.7051ZM40.1484 98.7051C40.1484 99.4004 40.2441 100.002 40.4355 100.51C40.6309 101.014 40.9277 101.404 41.3262 101.682C41.7285 101.955 42.2402 102.092 42.8613 102.092C43.4902 102.092 44.0039 101.955 44.4023 101.682C44.8008 101.404 45.0938 101.014 45.2812 100.51C45.4688 100.002 45.5625 99.4004 45.5625 98.7051C45.5625 97.6504 45.3477 96.8262 44.918 96.2324C44.4883 95.6348 43.8086 95.3359 42.8789 95.3359C42.2539 95.3359 41.7402 95.4727 41.3379 95.7461C40.9355 96.0156 40.6367 96.4023 40.4414 96.9062C40.2461 97.4062 40.1484 98.0059 40.1484 98.7051ZM55.623 103H54.1816L49.7461 95.9805H49.6992C49.7109 96.1914 49.7246 96.4238 49.7402 96.6777C49.7559 96.9277 49.7676 97.1914 49.7754 97.4688C49.7871 97.7422 49.7949 98.0195 49.7988 98.3008V103H48.6973V94.4336H50.127L54.5449 101.418H54.5859C54.5781 101.246 54.5684 101.033 54.5566 100.779C54.5449 100.525 54.5332 100.258 54.5215 99.9766C54.5137 99.6914 54.5098 99.4219 54.5098 99.168V94.4336H55.623V103ZM63.2637 103L62.3145 100.451H58.957L58.0195 103H56.7715L60.041 94.3984H61.2715L64.5234 103H63.2637ZM61.9805 99.4082L61.0781 96.8828C61.0508 96.7969 61.0078 96.668 60.9492 96.4961C60.8945 96.3242 60.8379 96.1465 60.7793 95.9629C60.7246 95.7793 60.6797 95.627 60.6445 95.5059C60.6055 95.666 60.5605 95.8359 60.5098 96.0156C60.459 96.1914 60.4082 96.3574 60.3574 96.5137C60.3105 96.666 60.2715 96.7891 60.2402 96.8828L59.3262 99.4082H61.9805ZM65.6895 103V94.4336H66.8906V101.957H70.6113V103H65.6895Z" fill="#064E3B"/>
<defs>
<clipPath id="clip0_60_1452">
<rect width="32" height="32" fill="white" transform="translate(24.5 21.5)"/>
</clipPath>
</defs>
</svg>
