<svg width="81" height="109" viewBox="0 0 81 109" fill="none" xmlns="http://www.w3.org/2000/svg">
<path d="M3.00024 37.4982C3.00024 16.7894 19.7911 0 40.5013 0C61.2115 0 77.9995 16.7894 77.9995 37.4982C77.9995 58.2106 61.2115 75 40.5013 75C19.7911 75 3.00024 58.2106 3.00024 37.4982Z" fill="#139FD5"/>
<path d="M49.0083 22.3857C51.9129 22.4323 54.4345 23.2151 56.4973 24.7408C58.5093 26.2346 59.5851 28.3171 59.7756 31.1025H54.7245C54.5144 29.3914 53.6538 28.1426 52.1637 27.3903C51.298 26.9542 50.2157 26.7412 49.009 26.6765V22.3857H49.0083Z" fill="white"/>
<path d="M31.484 27.2013C29.2409 27.2013 27.5771 27.9325 26.3988 29.4415C25.4786 30.5987 25.0163 32.0648 25.0163 33.7955V49.8959H19.8831V33.632C19.8831 30.2018 21.0076 27.4251 23.2224 25.3681C25.403 23.3154 28.1033 22.3174 31.4848 22.3174C34.896 22.3174 37.6262 23.3256 39.8293 25.4095C41.9889 27.4906 43.0857 30.2607 43.0857 33.632V39.2355H37.9576V33.7955C37.9576 32.0648 37.4917 30.5987 36.5751 29.4415C35.3939 27.9325 33.7301 27.2013 31.484 27.2013Z" fill="white"/>
<path d="M57.7769 49.3142C55.7947 51.0063 52.9388 51.8641 49.2789 51.8641C45.5312 51.8641 43.1317 51.0136 41.0136 49.3411C39.0205 47.7754 37.9644 45.6144 37.8677 42.9096H42.9188C43.1317 44.1402 43.5221 45.1048 44.0716 45.759C45.1677 47.0594 46.4507 47.7209 49.0376 47.7209C50.5568 47.7209 51.8085 47.5493 52.7716 47.2186C54.6964 46.5484 55.6762 45.2676 55.6762 43.4206C55.6762 42.3005 55.1761 41.4217 54.1883 40.8053C53.2797 40.2631 51.9081 39.7942 49.9906 39.3843L49.0064 39.167H49.0093V34.2322L53.3691 35.2585C55.5512 35.7739 57.2019 36.4637 58.2711 37.3054C59.9292 38.6145 60.7331 40.4615 60.7331 42.9613C60.7324 45.501 59.7387 47.6358 57.7769 49.3142Z" fill="white"/>
<rect y="87" width="81" height="22" rx="10" fill="#A7F3D0"/>
<path d="M11.0925 103V94.624H14.6925C15.4685 94.624 16.0685 94.852 16.4925 95.308C16.9165 95.764 17.1285 96.376 17.1285 97.144C17.1285 97.912 16.9165 98.524 16.4925 98.98C16.0685 99.436 15.4685 99.664 14.6925 99.664H12.4485V103H11.0925ZM12.4485 98.476H14.6085C14.9525 98.476 15.2205 98.388 15.4125 98.212C15.6045 98.028 15.7005 97.768 15.7005 97.432V96.856C15.7005 96.52 15.6045 96.264 15.4125 96.088C15.2205 95.904 14.9525 95.812 14.6085 95.812H12.4485V98.476ZM18.616 103V94.624H23.98V95.824H19.972V98.152H23.608V99.352H19.972V101.8H23.98V103H18.616ZM27.0853 103H25.7293V94.624H29.3413C30.0933 94.624 30.6853 94.852 31.1173 95.308C31.5493 95.756 31.7653 96.368 31.7653 97.144C31.7653 97.744 31.6253 98.244 31.3453 98.644C31.0733 99.036 30.6693 99.312 30.1333 99.472L31.9453 103H30.4333L28.7533 99.616H27.0853V103ZM29.2453 98.476C29.5893 98.476 29.8573 98.388 30.0493 98.212C30.2413 98.028 30.3373 97.768 30.3373 97.432V96.856C30.3373 96.52 30.2413 96.264 30.0493 96.088C29.8573 95.904 29.5893 95.812 29.2453 95.812H27.0853V98.476H29.2453ZM36.1005 103.144C35.3965 103.144 34.7965 103.016 34.3005 102.76C33.8125 102.504 33.3925 102.16 33.0405 101.728L33.9765 100.852C34.2725 101.212 34.5965 101.484 34.9485 101.668C35.3085 101.852 35.7165 101.944 36.1725 101.944C36.7085 101.944 37.1125 101.824 37.3845 101.584C37.6565 101.344 37.7925 101.02 37.7925 100.612C37.7925 100.284 37.6965 100.024 37.5045 99.832C37.3125 99.64 36.9725 99.496 36.4845 99.4L35.7405 99.268C34.9245 99.116 34.3125 98.848 33.9045 98.464C33.4965 98.08 33.2925 97.552 33.2925 96.88C33.2925 96.512 33.3605 96.18 33.4965 95.884C33.6405 95.58 33.8365 95.328 34.0845 95.128C34.3405 94.92 34.6485 94.76 35.0085 94.648C35.3685 94.536 35.7725 94.48 36.2205 94.48C36.8525 94.48 37.4005 94.592 37.8645 94.816C38.3285 95.032 38.7245 95.348 39.0525 95.764L38.1045 96.604C37.8885 96.324 37.6245 96.1 37.3125 95.932C37.0005 95.764 36.6125 95.68 36.1485 95.68C35.6685 95.68 35.2965 95.776 35.0325 95.968C34.7685 96.16 34.6365 96.44 34.6365 96.808C34.6365 97.16 34.7445 97.424 34.9605 97.6C35.1765 97.768 35.5125 97.896 35.9685 97.984L36.7125 98.14C37.5525 98.3 38.1645 98.572 38.5485 98.956C38.9405 99.34 39.1365 99.868 39.1365 100.54C39.1365 100.932 39.0685 101.288 38.9325 101.608C38.7965 101.928 38.5965 102.204 38.3325 102.436C38.0765 102.66 37.7605 102.836 37.3845 102.964C37.0085 103.084 36.5805 103.144 36.1005 103.144ZM44.0044 103.144C43.4604 103.144 42.9644 103.052 42.5164 102.868C42.0764 102.676 41.6964 102.4 41.3764 102.04C41.0644 101.672 40.8204 101.22 40.6444 100.684C40.4764 100.14 40.3924 99.516 40.3924 98.812C40.3924 98.108 40.4764 97.488 40.6444 96.952C40.8204 96.408 41.0644 95.956 41.3764 95.596C41.6964 95.228 42.0764 94.952 42.5164 94.768C42.9644 94.576 43.4604 94.48 44.0044 94.48C44.5484 94.48 45.0404 94.576 45.4804 94.768C45.9284 94.952 46.3084 95.228 46.6204 95.596C46.9404 95.956 47.1844 96.408 47.3524 96.952C47.5284 97.488 47.6164 98.108 47.6164 98.812C47.6164 99.516 47.5284 100.14 47.3524 100.684C47.1844 101.22 46.9404 101.672 46.6204 102.04C46.3084 102.4 45.9284 102.676 45.4804 102.868C45.0404 103.052 44.5484 103.144 44.0044 103.144ZM44.0044 101.932C44.3244 101.932 44.6164 101.876 44.8804 101.764C45.1524 101.652 45.3804 101.492 45.5644 101.284C45.7564 101.068 45.9044 100.808 46.0084 100.504C46.1124 100.2 46.1644 99.856 46.1644 99.472V98.152C46.1644 97.768 46.1124 97.424 46.0084 97.12C45.9044 96.816 45.7564 96.56 45.5644 96.352C45.3804 96.136 45.1524 95.972 44.8804 95.86C44.6164 95.748 44.3244 95.692 44.0044 95.692C43.6764 95.692 43.3804 95.748 43.1164 95.86C42.8524 95.972 42.6244 96.136 42.4324 96.352C42.2484 96.56 42.1044 96.816 42.0004 97.12C41.8964 97.424 41.8444 97.768 41.8444 98.152V99.472C41.8444 99.856 41.8964 100.2 42.0004 100.504C42.1044 100.808 42.2484 101.068 42.4324 101.284C42.6244 101.492 42.8524 101.652 43.1164 101.764C43.3804 101.876 43.6764 101.932 44.0044 101.932ZM51.5634 98.368L50.6394 96.592H50.6034V103H49.3074V94.624H50.8194L53.5554 99.256L54.4794 101.032H54.5154V94.624H55.8114V103H54.2994L51.5634 98.368ZM63.1058 103L62.3498 100.732H59.2178L58.4858 103H57.1058L59.9618 94.624H61.6658L64.5218 103H63.1058ZM60.8138 95.872H60.7538L59.5418 99.568H62.0138L60.8138 95.872ZM65.8191 103V94.624H67.1751V101.8H70.5831V103H65.8191Z" fill="#064E3B"/>
</svg>
