<?xml version="1.0" encoding="utf-8"?>
<!-- Generator: Adobe Illustrator 22.0.1, SVG Export Plug-In . SVG Version: 6.00 Build 0)  -->
<svg version="1.1" id="Livello_1" xmlns="http://www.w3.org/2000/svg" xmlns:xlink="http://www.w3.org/1999/xlink" x="0px" y="0px"
	 viewBox="0 0 200 200" style="enable-background:new 0 0 200 200;" xml:space="preserve">
<style type="text/css">
	.st0{clip-path:url(#SVGID_2_);fill:#fff;}
</style>
<g>
	<defs>
		<rect id="SVGID_1_" x="20" y="56.6" width="160" height="86.4"/>
	</defs>
	<clipPath id="SVGID_2_">
		<use xlink:href="#SVGID_1_"  style="overflow:visible;"/>
	</clipPath>
	<path class="st0" d="M173.8,114.2c-1.4,2.7-4.1,7-7.3,6.4c-2.7-0.5-5.3-4.2-5.7-7.9c-0.2-1.5,0-3.4,1.7-4.1c2-0.8,2.9-0.7,3-0.7
		c0.3,0.3,0.3,2.1-0.1,3.6c-0.4,1.4,0.4,2.9,1.8,3.3c1.4,0.4,2.9-0.4,3.3-1.8c0.3-1,1.6-6.2-1.5-8.9c-1.9-1.7-4.8-1.8-8.6-0.3
		c-2.7,1.1-4.4,3.4-4.9,6.3c-30.6-29.9-53-34.5-63.8-34.5c-1.9,0-3.5,0.1-4.7,0.3c-0.1-2.7,0.3-7,3-10c2.6-3,7-4.3,13.1-4
		c16.9,1,58.3,22,69.2,40.9C174.9,107.3,175.4,111.1,173.8,114.2 M25.4,137.7c-0.2-0.6-0.2-1.5-0.1-2.4l131.2-18.1
		c0.9,2.2,2.2,4.3,3.9,5.9c-12.3,3-35.9,6.4-66.7,9.6C58.6,136.3,30.8,138.1,25.4,137.7 M86.1,81.5c0.8-0.2,2.8-0.6,5.7-0.6
		c9.8,0,30.3,4.2,58.9,31.8L31.4,129.2L86.1,81.5z M176.9,100.3c-11.8-20.6-55-42.5-73.5-43.6c-7.8-0.4-13.7,1.5-17.4,5.8
		C81.5,67.8,81.7,74.9,82,78l-60.7,53c0,0,0,0,0,0c-0.2,0.2-0.3,0.3-0.5,0.5c0,0,0,0.1-0.1,0.1c-0.1,0.2-0.2,0.4-0.2,0.6
		c-0.2,0.7-1.7,6.5,1.5,9.7c0.6,0.6,1.1,1.1,5.7,1.1c3.3,0,8.7-0.2,17.8-0.8c13.3-0.9,30.2-2.3,46.4-4c25.4-2.6,69.4-7.7,79.2-13
		c0.3-0.1,0.5-0.3,0.7-0.5c2.2-1.3,4.5-3.7,6.7-8C180.9,111.8,180.4,106.3,176.9,100.3"/>
	<path class="st0" d="M90.5,94.8c-5.8,0-8.9-1.9-8.9-2.7c0-0.8,3.1-2.7,8.9-2.7c5.8,0,8.9,1.9,8.9,2.7
		C99.4,92.9,96.3,94.8,90.5,94.8 M90.5,85.8c-6.2,0-12.4,2.1-12.4,6.2s6.2,6.2,12.4,6.2c6.2,0,12.4-2.1,12.4-6.2
		S96.7,85.8,90.5,85.8"/>
	<path class="st0" d="M114.6,110c-5.8,0-8.9-1.9-8.9-2.7c0-0.8,3.1-2.7,8.9-2.7c5.8,0,8.9,1.9,8.9,2.7
		C123.5,108,120.4,110,114.6,110 M114.6,101c-6.2,0-12.4,2.1-12.4,6.2c0,4.1,6.2,6.2,12.4,6.2c6.2,0,12.4-2.1,12.4-6.2
		C127,103.1,120.8,101,114.6,101"/>
	<path class="st0" d="M69,116.1c-5.8,0-8.9-1.9-8.9-2.7c0-0.8,3.1-2.7,8.9-2.7c5.8,0,8.9,1.9,8.9,2.7
		C77.9,114.2,74.8,116.1,69,116.1 M69,107.1c-6.2,0-12.4,2.1-12.4,6.2c0,4.1,6.2,6.2,12.4,6.2c6.2,0,12.4-2.1,12.4-6.2
		C81.4,109.3,75.2,107.1,69,107.1"/>
</g>
</svg>
