<svg version="1.2" xmlns="http://www.w3.org/2000/svg" viewBox="0 0 200 200" width="200" height="200">
	<title>pizza-svg</title>
	<style>
		.s0 { fill: #000000 } 
		.s1 { fill: #ec7a08 } 
	</style>
	<path id="Layer" fill-rule="evenodd" class="s0" d="m178.5 117.1c-2.2 4.3-4.5 6.7-6.7 8-0.2 0.2-0.4 0.4-0.7 0.5-4.2 2.3-15 4.5-27.9 6.6l-2.6-5c8.2-1.3 14.9-2.6 19.8-3.7-1.7-1.6-3-3.7-3.9-5.9l-19.5 2.6-2.6-4.9 16.3-2.2c-28.6-27.6-49.1-31.8-58.9-31.8-2.9 0-4.9 0.4-5.7 0.6l-54.7 47.7 83.1-11.5-3 5.7-86.2 11.9c-0.1 0.9-0.1 1.8 0.1 2.4 5.4 0.4 33.2-1.4 68.3-5q7.1-0.8 13.7-1.5l-2.9 5.6c-4.5 0.5-8.7 1-12.6 1.4-16.2 1.7-33.1 3.1-46.4 4-9.1 0.6-14.5 0.8-17.8 0.8-4.6 0-5.1-0.5-5.7-1.1-3.2-3.2-1.7-9-1.5-9.7q0-0.2 0.1-0.3 0-0.2 0.1-0.3c0.1 0 0.1-0.1 0.1-0.1l0.5-0.5 60.7-53c-0.3-3.1-0.5-10.2 4-15.5 3.7-4.3 9.6-6.2 17.4-5.8 18.5 1.1 61.7 23 73.5 43.6 3.5 6 4 11.5 1.6 16.4zm-6.2-13.9c-10.9-18.9-52.3-39.9-69.2-40.9-6.1-0.3-10.5 1-13.1 4-2.7 3-3.1 7.3-3 10 1.2-0.2 2.8-0.3 4.7-0.3 10.8 0 33.2 4.6 63.8 34.5 0.5-2.9 2.2-5.2 4.9-6.3 3.8-1.5 6.7-1.4 8.6 0.3 3.1 2.7 1.8 7.9 1.5 8.9-0.4 1.4-1.9 2.2-3.3 1.8-1.4-0.4-2.2-1.9-1.8-3.3 0.4-1.5 0.4-3.3 0.1-3.6q0 0 0 0c-0.2-0.1-1.1-0.1-3 0.7-1.7 0.7-1.9 2.6-1.7 4.1 0.4 3.7 3 7.4 5.7 7.9 3.2 0.6 5.9-3.7 7.3-6.4q2.4-4.7-1.5-11.4zm-49.6 0.5q-0.5 0.2-0.9 0.7-0.5 0.4-0.8 1.1l-0.2 0.3c-1.5-0.5-3.5-0.8-6.2-0.8-5.8 0-8.9 1.9-8.9 2.7 0 0.8 3.1 2.7 8.9 2.7q2.3-0.1 4.1-0.4l-2 3.7q-1 0.1-2.1 0.1c-6.2 0-12.4-2.1-12.4-6.2 0-4.1 6.2-6.2 12.4-6.2 3.4 0 6.7 0.6 9.1 1.8q-0.6 0.1-1 0.5zm-19.8-11.3c0 4.1-6.2 6.2-12.4 6.2-6.2 0-12.4-2.1-12.4-6.2 0-4.1 6.2-6.2 12.4-6.2 6.2 0 12.4 2.1 12.4 6.2zm-3.5 0.1c0-0.8-3.1-2.7-8.9-2.7-5.8 0-8.9 1.9-8.9 2.7 0 0.8 3.1 2.7 8.9 2.7 5.8 0 8.9-1.9 8.9-2.7zm-42.8 21.2c0-4.1 6.2-6.2 12.4-6.2 6.2 0 12.4 2.2 12.4 6.2 0 4.1-6.2 6.2-12.4 6.2-6.2 0-12.4-2.1-12.4-6.2zm3.5 0.1c0 0.8 3.1 2.7 8.9 2.7 5.8 0 8.9-1.9 8.9-2.7 0-0.8-3.1-2.7-8.9-2.7-5.8 0-8.9 1.9-8.9 2.7z"/>
	<path id="Layer" fill-rule="evenodd" class="s1" d="m125.2 103q0.6 0 1.1 0.1 0.7 0.2 1.2 0.6 0.7 0.2 1.1 0.7 0.3 0.4 0.7 1.1l28.4 54.5q0.6 1.1 0.5 2.3 0 1.2-0.6 2.4-0.3 0.5-0.7 1-0.5 0.4-1 0.6-0.6 0.3-1.2 0.6-0.5 0.1-1.2 0.1h-56.7q-0.6 0-1.3-0.1-0.5-0.3-1-0.6-0.7-0.2-1.1-0.6-0.4-0.5-0.7-1-0.7-1.2-0.7-2.4 0-1.2 0.7-2.3l28.3-54.5q0.3-0.7 0.8-1.1 0.4-0.5 0.9-0.7 0.5-0.4 1.2-0.6 0.6-0.1 1.3-0.1zm-24.6 56.7h49.2l-24.6-48zm29.1-5.4c-0.1 0.3-0.5 0.6-0.9 0.6q-1.4 0-2.7 0-2.1 0-4.2 0c-0.6 0-1.6 0-1.6-0.9v-3c0-0.5 0.4-0.9 1-0.9h7.5c0.5 0 1 0.4 1 0.9v3q0 0.1-0.1 0.3zm0-9.4c-0.1 0.4-0.4 0.6-0.9 0.6q-1.3 0-2.7 0-2.1 0-4.1 0c-0.7 0-1.7-0.1-1.7-1v-14.6c0-0.5 0.4-0.9 1.1-0.9h7.4c0.6 0 1 0.4 1 0.9v14.6q0 0.3-0.1 0.4z"/>
</svg>