<svg width="80" height="109" viewBox="0 0 80 109" fill="none" xmlns="http://www.w3.org/2000/svg">
<rect x="2.5" width="75" height="75" rx="37.5" fill="#4B5563"/>
<path fill-rule="evenodd" clip-rule="evenodd" d="M33.1632 35.0551C33.1632 33.7739 35.1007 33.1177 37.038 33.1177C38.9755 33.1177 40.9128 33.7739 40.9128 35.0551C40.9128 36.3363 38.9755 36.9925 37.038 36.9925C35.1007 36.9925 33.1632 36.3363 33.1632 35.0551ZM34.2569 35.0863C34.2569 35.3363 35.2256 35.93 37.038 35.93C38.8505 35.93 39.8191 35.3363 39.8191 35.0863C39.8191 34.8363 38.8505 34.2426 37.038 34.2426C35.2256 34.2426 34.2569 34.8363 34.2569 35.0863Z" fill="white"/>
<path fill-rule="evenodd" clip-rule="evenodd" d="M44.5689 37.8675C42.6316 37.8675 40.6941 38.5237 40.6941 39.8049C40.6941 41.086 42.6316 41.7423 44.5689 41.7423C46.5064 41.7423 48.4437 41.086 48.4437 39.8049C48.4437 38.5237 46.5064 37.8675 44.5689 37.8675ZM44.5689 40.6798C42.7566 40.6798 41.7878 40.0861 41.7878 39.8361C41.7878 39.5861 42.7566 38.9924 44.5689 38.9924C46.3814 38.9924 47.35 39.5861 47.35 39.8361C47.35 40.0549 46.3814 40.6798 44.5689 40.6798Z" fill="white"/>
<path fill-rule="evenodd" clip-rule="evenodd" d="M26.4447 41.711C26.4447 40.4298 28.3822 39.7736 30.3195 39.7736C32.257 39.7736 34.1943 40.4611 34.1943 41.711C34.1943 42.9922 32.257 43.6484 30.3195 43.6484C28.3822 43.6484 26.4447 42.9922 26.4447 41.711ZM27.5384 41.7423C27.5384 41.9922 28.5072 42.586 30.3195 42.586C32.132 42.586 33.1006 41.9922 33.1006 41.7423C33.1006 41.4923 32.132 40.8985 30.3195 40.8985C28.5072 40.8985 27.5384 41.4923 27.5384 41.7423Z" fill="white"/>
<path fill-rule="evenodd" clip-rule="evenodd" d="M41.069 24.0243C46.85 24.3681 60.3494 31.2115 64.0367 37.6487C65.1304 39.5236 65.2867 41.2423 64.5367 42.7735C63.8493 44.1172 63.1305 44.8671 62.4432 45.2734C62.3806 45.3358 62.318 45.3983 62.2244 45.4296C59.1621 47.0858 45.4127 48.6794 37.4754 49.4919C32.4133 50.0231 27.1323 50.4606 22.9761 50.7419C20.1325 50.9293 18.4451 50.9918 17.4139 50.9918C15.9765 50.9918 15.8202 50.8356 15.6327 50.6481C14.6329 49.6482 15.1016 47.8357 15.164 47.617C15.164 47.5917 15.1692 47.5663 15.1774 47.541C15.1893 47.5038 15.2079 47.4667 15.2265 47.4295C15.2578 47.4295 15.2578 47.3983 15.2578 47.3983L15.4141 47.242L34.3819 30.6803C34.2882 29.7116 34.2256 27.4929 35.6318 25.8368C36.7881 24.4931 38.6317 23.8993 41.069 24.0243ZM60.7869 43.9922C61.7869 44.1797 62.6305 42.836 63.0681 41.9923C63.568 41.0235 63.4117 39.8361 62.5994 38.4299C59.1932 32.524 46.2563 25.9618 40.9753 25.6493C39.0691 25.5555 37.6942 25.9618 36.8817 26.8992C36.0381 27.8367 35.913 29.1804 35.9443 30.0241C36.3193 29.9616 36.8193 29.9303 37.413 29.9303C40.7878 29.9303 47.7875 31.3678 57.3495 40.7111C57.5058 39.8049 58.0371 39.0862 58.8807 38.7424C60.0682 38.2737 60.9744 38.3049 61.5681 38.8361C62.5368 39.6799 62.1307 41.3048 62.0368 41.6173C61.9119 42.0548 61.4431 42.3048 61.0057 42.1797C60.5682 42.0548 60.3182 41.586 60.4431 41.1486C60.5682 40.6798 60.5682 40.1174 60.4744 40.0236C60.4431 40.0236 60.1619 39.9923 59.5369 40.2423C59.0058 40.4611 58.9433 41.0548 59.0058 41.5235C59.1308 42.6797 59.9433 43.8359 60.7869 43.9922ZM16.664 48.5857C16.6327 48.867 16.6327 49.1482 16.6951 49.3357C18.3827 49.4607 27.0697 48.8982 38.038 47.7733C47.6625 46.7733 55.0372 45.7108 58.8807 44.7734C58.3496 44.2734 57.9432 43.6172 57.662 42.9297L16.664 48.5857ZM37.4443 31.5865C36.538 31.5865 35.913 31.7115 35.6631 31.774L18.57 46.6796L55.8497 41.5235C46.9126 32.8989 40.5066 31.5865 37.4443 31.5865Z" fill="white"/>
<rect x="9.25586" y="87" width="61.4885" height="22" rx="10" fill="#FDE68A"/>
<path fill-rule="evenodd" clip-rule="evenodd" d="M26.512 91C26.6068 91 26.6922 91.0095 26.7681 91.0285C26.8629 91.0474 26.9483 91.0854 27.0242 91.1423C27.119 91.1802 27.1949 91.2371 27.2518 91.313C27.3087 91.3699 27.3656 91.4458 27.4225 91.5407L33.6258 103.463C33.7206 103.634 33.7586 103.805 33.7396 103.976C33.7396 104.146 33.6922 104.317 33.5973 104.488C33.5594 104.564 33.512 104.64 33.455 104.715C33.3792 104.772 33.3033 104.82 33.2274 104.858C33.1515 104.896 33.0662 104.934 32.9713 104.972C32.8954 104.991 32.8101 105 32.7152 105H20.3087C20.2139 105 20.119 104.991 20.0242 104.972C19.9483 104.934 19.8724 104.896 19.7965 104.858C19.7017 104.82 19.6258 104.772 19.5689 104.715C19.512 104.64 19.455 104.564 19.3981 104.488C19.3033 104.317 19.2559 104.146 19.2559 103.976C19.2559 103.805 19.3033 103.634 19.3981 103.463L25.6014 91.5407C25.6393 91.4458 25.6962 91.3699 25.7721 91.313C25.829 91.2371 25.8954 91.1802 25.9713 91.1423C26.0472 91.0854 26.1326 91.0474 26.2274 91.0285C26.3223 91.0095 26.4171 91 26.512 91ZM21.1339 103.407H31.89L26.512 92.9065L21.1339 103.407ZM27.5079 102.211C27.4794 102.297 27.3941 102.354 27.3087 102.354C27.1 102.354 26.9008 102.354 26.7111 102.354C26.4076 102.354 26.1041 102.354 25.8006 102.354C25.6583 102.354 25.4591 102.354 25.4591 102.154V101.5C25.4591 101.386 25.5445 101.301 25.6583 101.301H27.3087C27.4225 101.301 27.5363 101.386 27.5363 101.5V102.154C27.5363 102.173 27.5269 102.192 27.5079 102.211ZM27.5079 100.163C27.4794 100.248 27.4225 100.305 27.3087 100.305C27.119 100.305 26.9198 100.305 26.7111 100.305C26.4076 100.305 26.1136 100.305 25.829 100.305C25.6583 100.305 25.4591 100.276 25.4591 100.077V96.8902C25.4591 96.7764 25.5445 96.6911 25.6868 96.6911H27.3087C27.451 96.6911 27.5363 96.7764 27.5363 96.8902V100.077C27.5363 100.115 27.5269 100.144 27.5079 100.163Z" fill="#92400E"/>
<path d="M43.9709 103H39.1604V94.4336H43.9709V95.4648H40.3616V98.0137H43.7542V99.0332H40.3616V101.963H43.9709V103ZM53.3577 98.7051C53.3577 99.3652 53.2737 99.9668 53.1057 100.51C52.9377 101.049 52.6877 101.514 52.3557 101.904C52.0276 102.291 51.6155 102.59 51.1194 102.801C50.6272 103.012 50.051 103.117 49.3909 103.117C48.719 103.117 48.1331 103.012 47.6331 102.801C47.137 102.59 46.7249 102.289 46.3967 101.898C46.0686 101.508 45.8225 101.041 45.6584 100.498C45.4983 99.9551 45.4182 99.3535 45.4182 98.6934C45.4182 97.8145 45.5627 97.0449 45.8518 96.3848C46.1409 95.7246 46.5803 95.2129 47.1702 94.8496C47.7639 94.4824 48.51 94.2988 49.4084 94.2988C50.2756 94.2988 51.0022 94.4805 51.5881 94.8438C52.1741 95.207 52.6155 95.7188 52.9124 96.3789C53.2092 97.0352 53.3577 97.8105 53.3577 98.7051ZM46.678 98.7051C46.678 99.4004 46.7737 100.002 46.9651 100.51C47.1604 101.014 47.4573 101.404 47.8557 101.682C48.2581 101.955 48.7698 102.092 49.3909 102.092C50.0198 102.092 50.5334 101.955 50.9319 101.682C51.3303 101.404 51.6233 101.014 51.8108 100.51C51.9983 100.002 52.092 99.4004 52.092 98.7051C52.092 97.6504 51.8772 96.8262 51.4475 96.2324C51.0178 95.6348 50.3381 95.3359 49.4084 95.3359C48.7834 95.3359 48.2698 95.4727 47.8674 95.7461C47.4651 96.0156 47.1663 96.4023 46.9709 96.9062C46.7756 97.4062 46.678 98.0059 46.678 98.7051ZM55.2268 103V94.4336H56.428V101.957H60.1487V103H55.2268Z" fill="#92400E"/>
</svg>
