<svg width="75" height="109" viewBox="0 0 75 109" fill="none" xmlns="http://www.w3.org/2000/svg">
<rect width="75" height="75" rx="37.5" fill="#0891B2"/>
<g clip-path="url(#clip0_58_1315)">
<path d="M37.5 53.4964L21.5 37.4964L37.5 21.5L53.5 37.4964L37.5 53.4964ZM28.235 37.4608L37.5 46.7045L46.7436 37.4608L37.5 28.1958L28.235 37.4608Z" fill="white"/>
</g>
<rect x="11.5" y="87" width="52" height="22" rx="10" fill="#E5E7EB"/>
<path d="M25.4883 103H24.2812V95.4707H21.6797V94.4336H28.084V95.4707H25.4883V103ZM31.752 94.4336C32.4746 94.4336 33.0703 94.5234 33.5391 94.7031C34.0117 94.8789 34.3633 95.1484 34.5938 95.5117C34.8242 95.8711 34.9395 96.3281 34.9395 96.8828C34.9395 97.3203 34.8594 97.6895 34.6992 97.9902C34.5391 98.291 34.3281 98.5371 34.0664 98.7285C33.8086 98.9199 33.5312 99.0703 33.2344 99.1797L35.6309 103H34.2539L32.168 99.4961H30.5918V103H29.3906V94.4336H31.752ZM31.6758 95.4531H30.5918V98.4941H31.7578C32.4336 98.4941 32.9277 98.3633 33.2402 98.1016C33.5527 97.8359 33.709 97.4453 33.709 96.9297C33.709 96.3945 33.543 96.0156 33.2109 95.793C32.8789 95.5664 32.3672 95.4531 31.6758 95.4531ZM36.9258 103V94.4336H38.127V103H36.9258ZM45.7852 103L44.8359 100.451H41.4785L40.541 103H39.293L42.5625 94.3984H43.793L47.0449 103H45.7852ZM44.502 99.4082L43.5996 96.8828C43.5723 96.7969 43.5293 96.668 43.4707 96.4961C43.416 96.3242 43.3594 96.1465 43.3008 95.9629C43.2461 95.7793 43.2012 95.627 43.166 95.5059C43.127 95.666 43.082 95.8359 43.0312 96.0156C42.9805 96.1914 42.9297 96.3574 42.8789 96.5137C42.832 96.666 42.793 96.7891 42.7617 96.8828L41.8477 99.4082H44.502ZM48.2109 103V94.4336H49.4121V101.957H53.1328V103H48.2109Z" fill="#111827"/>
<defs>
<clipPath id="clip0_58_1315">
<rect width="32" height="32" fill="white" transform="translate(21.5 21.5)"/>
</clipPath>
</defs>
</svg>
