<svg width="75" height="109" viewBox="0 0 75 109" fill="none" xmlns="http://www.w3.org/2000/svg">
<path d="M0 37.4982C0 16.7894 16.7909 0 37.5011 0C58.2113 0 74.9993 16.7894 74.9993 37.4982C74.9993 58.2106 58.2113 75 37.5011 75C16.7909 75 0 58.2106 0 37.4982Z" fill="#139FD5"/>
<path d="M46.0081 22.3857C48.9127 22.4323 51.4342 23.2151 53.4971 24.7408C55.5091 26.2346 56.5849 28.3171 56.7753 31.1025H51.7242C51.5142 29.3914 50.6535 28.1426 49.1634 27.3903C48.2977 26.9542 47.2154 26.7412 46.0088 26.6765V22.3857H46.0081Z" fill="white"/>
<path d="M28.4838 27.2013C26.2407 27.2013 24.5768 27.9325 23.3986 29.4415C22.4783 30.5987 22.016 32.0648 22.016 33.7955V49.8959H16.8828V33.632C16.8828 30.2018 18.0073 27.4251 20.2221 25.3681C22.4027 23.3154 25.1031 22.3174 28.4845 22.3174C31.8958 22.3174 34.6259 23.3256 36.8291 25.4095C38.9886 27.4906 40.0855 30.2607 40.0855 33.632V39.2355H34.9574V33.7955C34.9574 32.0648 34.4914 30.5987 33.5749 29.4415C32.3937 27.9325 30.7299 27.2013 28.4838 27.2013Z" fill="white"/>
<path d="M54.7766 49.3142C52.7944 51.0063 49.9385 51.8641 46.2787 51.8641C42.5309 51.8641 40.1315 51.0136 38.0134 49.3411C36.0203 47.7754 34.9641 45.6144 34.8674 42.9096H39.9185C40.1315 44.1402 40.5218 45.1048 41.0713 45.759C42.1675 47.0594 43.4504 47.7209 46.0374 47.7209C47.5565 47.7209 48.8082 47.5493 49.7713 47.2186C51.6961 46.5484 52.6759 45.2676 52.6759 43.4206C52.6759 42.3005 52.1759 41.4217 51.188 40.8053C50.2794 40.2631 48.9078 39.7942 46.9903 39.3843L46.0061 39.167H46.009V34.2322L50.3688 35.2585C52.5509 35.7739 54.2017 36.4637 55.2709 37.3054C56.9289 38.6145 57.7328 40.4615 57.7328 42.9613C57.7321 45.501 56.7385 47.6358 54.7766 49.3142Z" fill="white"/>
<rect x="11.4998" y="87" width="52" height="22" rx="10" fill="#E5E7EB"/>
<path d="M25.488 103H24.281V95.4707H21.6794V94.4336H28.0837V95.4707H25.488V103ZM31.7517 94.4336C32.4744 94.4336 33.0701 94.5234 33.5388 94.7031C34.0115 94.8789 34.363 95.1484 34.5935 95.5117C34.824 95.8711 34.9392 96.3281 34.9392 96.8828C34.9392 97.3203 34.8591 97.6895 34.699 97.9902C34.5388 98.291 34.3279 98.5371 34.0662 98.7285C33.8083 98.9199 33.531 99.0703 33.2341 99.1797L35.6306 103H34.2537L32.1677 99.4961H30.5916V103H29.3904V94.4336H31.7517ZM31.6755 95.4531H30.5916V98.4941H31.7576C32.4333 98.4941 32.9275 98.3633 33.24 98.1016C33.5525 97.8359 33.7087 97.4453 33.7087 96.9297C33.7087 96.3945 33.5427 96.0156 33.2107 95.793C32.8787 95.5664 32.3669 95.4531 31.6755 95.4531ZM36.9255 103V94.4336H38.1267V103H36.9255ZM45.7849 103L44.8357 100.451H41.4783L40.5408 103H39.2927L42.5623 94.3984H43.7927L47.0447 103H45.7849ZM44.5017 99.4082L43.5994 96.8828C43.572 96.7969 43.5291 96.668 43.4705 96.4961C43.4158 96.3242 43.3591 96.1465 43.3005 95.9629C43.2458 95.7793 43.2009 95.627 43.1658 95.5059C43.1267 95.666 43.0818 95.8359 43.031 96.0156C42.9802 96.1914 42.9294 96.3574 42.8787 96.5137C42.8318 96.666 42.7927 96.7891 42.7615 96.8828L41.8474 99.4082H44.5017ZM48.2107 103V94.4336H49.4119V101.957H53.1326V103H48.2107Z" fill="#111827"/>
</svg>
