<?xml version="1.0" encoding="utf-8"?>
<!-- Generator: Adobe Illustrator 22.0.1, SVG Export Plug-In . SVG Version: 6.00 Build 0)  -->
<svg version="1.1" id="Livello_1" xmlns="http://www.w3.org/2000/svg" xmlns:xlink="http://www.w3.org/1999/xlink" x="0px" y="0px"
  viewBox="0 0 200 200" style="enable-background:new 0 0 200 200;" xml:space="preserve">
  <style type="text/css">
    .st0 {
      fill: #fff;
    }

  </style>
  <g>
    <path class="st0" d="M142.9,53.9c0.6,0,1.2-0.2,1.7-0.6c0.5-0.4,0.8-1,0.8-1.6c0.1-1.3-0.9-2.4-2.1-2.5c-2.9-0.2-5.6,0.7-7.8,2.6
		c-2.2,1.9-3.5,4.5-3.7,7.3c-0.2,2.9,0.7,5.6,2.6,7.8c1.9,2.2,4.5,3.5,7.3,3.7c0.3,0,0.5,0,0.8,0c2.6,0,5-0.9,7-2.6
		c2.2-1.9,3.5-4.5,3.7-7.3c0.1-1.2-0.9-2.4-2.1-2.5c-1.2-0.1-2.4,0.9-2.5,2.1c-0.1,1.6-0.9,3.1-2.1,4.1c-1.2,1.1-2.8,1.6-4.4,1.5
		c-1.6-0.1-3.1-0.9-4.1-2.1c-1.1-1.2-1.6-2.8-1.5-4.4C136.6,56.1,139.6,53.6,142.9,53.9z" />
    <path class="st0" d="M164.2,51c-1.2-0.1-2.4,0.9-2.5,2.1l-2.5,35.3l-91.3,79L46.8,143l0,0c0-0.1-0.1-0.2-0.3-0.3l-20.9-24.1
		l91.3-79l35.8,2.6c1.2,0.1,2.4-0.9,2.5-2.1c0.1-1.2-0.9-2.4-2.1-2.5l-36.7-2.6c-0.5,0-1.1,0.1-1.7,0.5l-93.8,81.3
		c-0.3,0.3-0.7,0.9-0.7,1.5c0,0.5,0.1,1.1,0.5,1.7l22.5,26l0,0c0,0.1,0.1,0.2,0.3,0.3l22.5,26c0.4,0.4,0.9,0.7,1.6,0.8
		c0.1,0,0.2,0,0.2,0c0.6,0,1.1-0.2,1.5-0.5L163,91.3c0.4-0.4,0.7-0.9,0.8-1.6l2.6-36.2c0-0.6-0.2-1.2-0.6-1.7
		C165.3,51.3,164.8,51,164.2,51z" />
    <path class="st0" d="M179.4,28.1L179.4,28.1c-0.6-0.6-1.3-1-2.2-1.1c-0.8,0-1.5,0.2-2,0.7l-34.7,29.9c-0.6,0.5-1,1.3-1,2.1
		c0,0.8,0.2,1.5,0.7,2c0.5,0.6,1.2,1,2,1c0.1,0,0.1,0,0.2,0c0.7,0,1.4-0.3,1.9-0.7l34.7-30C180.2,31.1,180.3,29.3,179.4,28.1z"
    />
    <polygon class="st0" points="63.8,112.4 49.5,124.7 51.7,127.3 57.5,122.4 71.5,138.6 74.3,136.2 60.3,119.9 66,115 	" />
    <path class="st0" d="M92.5,120.4l3.3-2.9l-12.2-4c1.5-2.9,1.2-5.6-0.9-8c-1.6-1.8-3.3-2.7-5.3-2.6c-1.9,0.1-4,1.1-6.3,3.1l-5.3,4.6
		l16.3,18.8l2.8-2.4l-6.5-7.5l3.2-2.8L92.5,120.4z M81.1,111.3c-0.2,1.1-1,2.2-2.3,3.4l-2.5,2.2l-5.4-6.2l2.4-2.1
		c1.5-1.3,2.8-2,3.8-2c1-0.1,2,0.4,2.9,1.5C80.9,109.3,81.2,110.3,81.1,111.3z" />

    <rect x="89.2" y="92.8" transform="matrix(0.7561 -0.6545 0.6545 0.7561 -46.6816 85.251)" class="st0" width="3.7" height="24.9"
    />
    <path class="st0" d="M116.3,99.8l3-2.6L95.5,84.8l-2.3,2l8.9,25.3l2.9-2.5l-2.8-7.7l6.8-5.9L116.3,99.8z M105.9,94.2l-4.8,4.2
		l-2.5-6.8c-0.2-0.6-0.5-1.2-0.8-1.8c0.6,0.4,1.2,0.7,1.7,1L105.9,94.2z" />
    <polygon class="st0" points="131.7,86.5 129.4,83.9 121.4,90.8 107.4,74.6 104.6,77 120.9,95.9 	" />
  </g>
</svg>
